<?xml version="1.0" standalone="no"?>
<!DOCTYPE svg PUBLIC "-//W3C//DTD SVG 20010904//EN"
 "http://www.w3.org/TR/2001/REC-SVG-20010904/DTD/svg10.dtd">
<svg version="1.0" xmlns="http://www.w3.org/2000/svg"
 width="1725.000000pt" height="1725.000000pt" viewBox="0 0 1725.000000 1725.000000"
 preserveAspectRatio="xMidYMid meet">
<metadata>
Created by potrace 1.11, written by Peter Selinger 2001-2013
</metadata>
<g transform="translate(0.000000,1725.000000) scale(0.100000,-0.100000)"
fill="#000000" stroke="none">
<path d="M4589 15926 c-2 -2 -44 -7 -93 -10 -49 -4 -103 -9 -120 -11 -17 -2
-69 -9 -115 -15 -304 -40 -675 -142 -966 -265 -773 -327 -1415 -868 -1900
-1600 -62 -93 -124 -190 -137 -215 -14 -25 -38 -67 -55 -95 -82 -139 -238
-472 -310 -660 -71 -187 -177 -523 -197 -625 -3 -14 -14 -61 -25 -105 -25
-103 -73 -358 -85 -455 -4 -25 -8 -56 -11 -70 -2 -14 -6 -51 -9 -84 -6 -64
-15 -137 -22 -176 -26 -155 -26 -663 1 -870 2 -19 7 -55 10 -80 5 -38 16 -124
29 -220 24 -167 160 -775 182 -811 3 -5 7 -19 9 -32 16 -86 191 -577 265 -742
9 -22 39 -89 66 -150 27 -60 90 -192 141 -293 89 -174 144 -272 278 -500 11
-19 75 -116 142 -218 336 -506 739 -972 1218 -1409 60 -55 134 -122 165 -150
30 -27 60 -54 66 -60 6 -5 47 -42 90 -82 44 -40 90 -81 103 -92 13 -11 67 -60
119 -108 112 -103 92 -85 217 -198 55 -49 120 -109 145 -131 70 -64 99 -91
184 -168 44 -39 94 -84 111 -101 18 -16 49 -45 71 -64 21 -19 66 -59 100 -90
33 -31 98 -90 144 -131 45 -41 95 -86 110 -100 15 -14 45 -41 66 -60 37 -33
195 -175 277 -250 22 -19 56 -51 76 -70 20 -19 72 -66 116 -105 43 -38 92 -83
110 -100 17 -16 51 -48 76 -69 24 -21 69 -62 99 -90 30 -28 96 -87 145 -131
50 -44 92 -82 95 -86 8 -9 233 -213 269 -245 19 -16 51 -45 71 -64 34 -32 71
-66 275 -249 33 -30 80 -73 104 -95 79 -73 98 -90 182 -166 45 -41 87 -79 93
-85 6 -5 54 -48 106 -95 52 -47 97 -88 100 -91 3 -3 32 -30 65 -60 33 -30 100
-89 148 -133 48 -43 95 -86 105 -95 11 -9 64 -57 118 -107 120 -109 295 -269
423 -384 52 -47 104 -94 116 -105 20 -19 162 -149 270 -245 27 -25 72 -65 99
-90 27 -25 54 -49 60 -55 6 -5 54 -49 107 -98 l97 -87 64 57 c35 32 96 86 135
121 40 35 83 73 96 85 13 12 59 54 102 92 44 39 125 111 180 160 56 50 134
119 174 155 41 36 81 72 90 81 9 8 97 87 196 174 155 138 216 192 269 240 16
15 185 166 225 200 18 17 46 41 61 55 15 14 43 39 61 55 59 52 314 279 325
290 6 5 44 39 84 75 41 36 85 76 99 89 14 13 55 48 90 79 34 31 73 66 85 77
19 17 133 118 186 165 93 82 169 150 192 171 16 15 56 51 90 80 33 30 66 59
72 65 10 9 79 71 163 145 109 97 239 213 243 218 3 3 41 37 85 76 44 38 127
112 185 164 58 52 121 108 140 125 138 123 338 301 410 366 29 26 156 140 199
178 33 29 76 67 132 117 24 22 103 92 174 155 118 104 190 168 235 210 9 8 52
46 96 85 43 38 97 86 119 106 22 20 108 96 190 170 83 74 155 138 161 144 6 5
47 42 90 80 289 257 607 582 828 846 77 92 218 272 267 339 29 41 57 80 61 85
50 64 183 262 273 405 305 490 575 1077 734 1600 23 74 45 149 50 165 30 97
110 423 125 510 3 17 8 41 11 55 3 14 12 63 20 110 8 47 17 94 19 106 2 12 7
45 11 74 4 29 8 60 10 69 1 9 6 50 10 91 4 41 8 77 10 80 10 16 19 238 19 460
1 225 -4 333 -19 420 -3 14 -7 52 -10 85 -9 86 -14 133 -20 158 -2 12 -7 45
-10 72 -13 111 -48 296 -89 475 -47 201 -160 578 -196 655 -5 11 -20 49 -33
85 -28 74 -173 404 -192 434 -7 12 -34 62 -60 111 -72 137 -208 362 -290 478
-58 83 -138 192 -145 197 -3 3 -27 33 -53 67 -144 189 -430 478 -647 653 -30
25 -57 47 -60 50 -12 13 -193 142 -275 197 -283 188 -607 346 -940 458 -128
43 -321 97 -413 115 -26 5 -58 12 -72 15 -240 50 -494 72 -810 69 -151 -1
-288 -4 -305 -7 -16 -3 -61 -8 -98 -12 -37 -3 -76 -8 -85 -10 -9 -1 -44 -6
-77 -9 -204 -23 -692 -148 -842 -217 -24 -10 -47 -19 -52 -19 -25 0 -442 -192
-521 -240 -8 -5 -55 -33 -105 -61 -167 -97 -359 -231 -532 -371 -79 -64 -233
-200 -267 -234 -206 -212 -278 -291 -379 -419 -31 -38 -62 -78 -71 -87 -8 -9
-19 -25 -25 -36 -6 -11 -17 -27 -26 -35 -8 -8 -60 -84 -115 -168 -56 -85 -105
-155 -109 -157 -4 -1 -17 16 -30 39 -47 84 -217 333 -289 424 -241 307 -452
522 -719 736 -329 263 -686 471 -1059 615 -150 58 -288 104 -311 104 -11 0
-23 4 -28 9 -9 8 -222 63 -290 75 -16 3 -41 8 -55 11 -31 6 -183 32 -230 39
-19 3 -69 8 -110 11 -41 3 -86 9 -100 11 -28 6 -566 15 -571 10z m903 -1866
c109 -40 190 -151 194 -264 3 -95 -20 -159 -80 -221 -77 -79 -112 -93 -241
-100 -168 -9 -280 -17 -285 -20 -4 -2 -31 -7 -61 -10 -30 -4 -72 -10 -94 -15
-22 -5 -54 -11 -72 -14 -52 -10 -283 -82 -368 -116 -446 -177 -848 -503 -1122
-910 -132 -195 -260 -470 -319 -685 -26 -96 -63 -275 -69 -335 -3 -31 -7 -67
-10 -80 -3 -14 -7 -83 -10 -155 -3 -71 -8 -143 -11 -160 -18 -84 -88 -170
-173 -212 -55 -28 -191 -25 -252 5 -63 30 -117 86 -147 151 -20 43 -25 69 -25
145 -1 93 10 305 19 341 2 11 6 36 8 55 10 81 39 231 67 339 269 1046 1089
1882 2129 2170 122 34 123 35 300 66 164 30 264 40 435 43 112 3 139 0 187
-18z"/>
</g>
</svg>
