<svg height="23" viewBox="0 0 24 23" width="24" xmlns="http://www.w3.org/2000/svg"><g fill-rule="evenodd" transform=""><path d="m20.207828 1.55716129h-2.9937205v-.74847312c0-.44903226-.2993548-.74847312-.7484731-.74847312s-.7484731.29935484-.7484731.74847312v.74847312h-7.48430108v-.74847312c0-.44903226-.29935484-.74847312-.74847312-.74847312-.44903226 0-.74847312.29935484-.74847312.74847312v.74847312h-2.99372043c-2.09565592 0-3.74219355 1.64653763-3.74219355 3.74219355v13.47191396c0 2.0956559 1.64653763 3.7421936 3.74219355 3.7421936h16.46563445c2.0956559 0 3.7421935-1.6465377 3.7421935-3.7421936v-13.47191396c0-2.09565592-1.6465376-3.74219355-3.7421935-3.74219355zm-18.71096778 3.74219355c0-1.19750538 1.04782795-2.24533333 2.24533333-2.24533333h2.99372043v.74847311c0 .44903226.29935484.74847312.74847312.74847312.44903225 0 .74847312-.29935484.74847312-.74847312v-.74847311h7.48438708v.74847311c0 .44903226.2993549.74847312.7484731.74847312.4491183 0 .7484731-.29935484.7484731-.74847312v-.74847311h2.9937205c1.1975054 0 2.2453333 1.04782795 2.2453333 2.24533333v2.24533333h-20.95638708zm20.95630108 13.47191396c0 1.1975054-1.047828 2.2453334-2.2453333 2.2453334h-16.46563445c-1.19750538 0-2.24533333-1.047828-2.24533333-2.2453334v-9.72972041h20.95630108z"/><path d="m5.23905376 18.7712688c.44903226 0 .74847312-.1496774 1.04782796-.4490322.29935484-.2993549.44903226-.7484732.44903226-1.047828s-.14967742-.7484731-.44903226-1.047828c-.59870968-.5987096-1.49686021-.5987096-2.09565591 0-.29935484.2993549-.44903226.5987097-.44903226 1.047828 0 .2993548.14967742.7484731.44903226 1.047828.29935484.2993548.5987957.4490322 1.04782795.4490322z"/><path d="m5.23905376 14.2806022c.44903226 0 .74847312-.1496775 1.04782796-.4490323s.44903226-.7484731.44903226-1.047828c0-.2993548-.14967742-.7484731-.44903226-1.0478279-.59870968-.5987097-1.49686021-.5987097-2.09565591 0-.29935484.2993548-.44903226.5987097-.44903226 1.0478279 0 .4491183.14967742.7484732.44903226 1.047828s.5987957.4490323 1.04782795.4490323z"/><path d="m9.72972043 18.7712688c.44903227 0 .74847307-.1496774 1.04782797-.4490322.2993548-.2993549.4490322-.7484732.4490322-1.047828s-.1496774-.7484731-.4490322-1.047828c-.5987097-.5987096-1.49686023-.5987096-2.09565593 0-.29935484.2993549-.44903225.7484732-.44903225 1.047828s.14967741.7484731.44903225 1.047828c.29935484.2993548.5987957.4490322 1.04782796.4490322z"/><path d="m9.72972043 14.2806022c.44903227 0 .74847307-.1496775 1.04782797-.4490323.2993548-.2993548.4490322-.7484731.4490322-1.047828 0-.2993548-.1496774-.7484731-.4490322-1.0478279-.5987097-.5987097-1.49686023-.5987097-2.09565593 0-.29935484.2993548-.44903225.7484731-.44903225 1.0478279 0 .2993549.14967741.7484732.44903225 1.047828s.5987957.4490323 1.04782796.4490323z"/><path d="m14.2203011 18.7712688c.4490322 0 .7484731-.1496774 1.0478279-.4490322.2993549-.2993549.4490323-.5987097.4490323-1.047828s-.1496774-.7484731-.4490323-1.047828c-.5987096-.5987096-1.4968602-.5987096-2.0956559 0-.2993548.2993549-.4490322.7484732-.4490322 1.047828s.1496774.7484731.4490322 1.047828c.2993549.2993548.5987957.4490322 1.047828.4490322z"/><path d="m14.2203011 14.2806022c.4490322 0 .7484731-.1496775 1.0478279-.4490323.2993549-.2993548.4490323-.5987097.4490323-1.047828 0-.2993548-.1496774-.7484731-.4490323-1.0478279-.5987096-.5987097-1.4968602-.5987097-2.0956559 0-.2993548.2993548-.4490322.7484731-.4490322 1.0478279 0 .2993549.1496774.7484732.4490322 1.047828.2993549.2993548.5987957.4490323 1.047828.4490323z"/><path d="m18.7109677 18.7712688c.4490323 0 .7484732-.1496774 1.047828-.4490322.2993548-.2993549.4490323-.7484732.4490323-1.047828s-.1496775-.7484731-.4490323-1.047828c-.5987097-.5987096-1.4968602-.5987096-2.0956559 0-.2993549.2993549-.4490323.5987097-.4490323 1.047828 0 .2993548.1496774.7484731.4490323 1.047828.2993548.2993548.5987957.4490322 1.0478279.4490322z"/><path d="m18.7109677 14.2806022c.4490323 0 .7484732-.1496775 1.047828-.4490323s.4490323-.5987097.4490323-1.047828c0-.2993548-.1496775-.7484731-.4490323-1.0478279-.5987097-.5987097-1.4968602-.5987097-2.0956559 0-.2993549.2993548-.4490323.7484731-.4490323 1.0478279 0 .2993549.1496774.7484732.4490323 1.047828.2993548.2993548.5987957.4490323 1.0478279.4490323z"/></g></svg>