<svg height="23" viewBox="0 0 24 23" width="24" xmlns="http://www.w3.org/2000/svg"><path d="m23.9589231 7.03476923c-.3503077-3.85569231-3.0793846-6.65307692-6.4947693-6.65307692-2.2753846 0-4.3587692 1.22446154-5.5310769 3.18692307-1.1616923-1.98784615-3.15969228-3.18738461-5.39861536-3.18738461-3.41492308 0-6.14446154 2.79738461-6.49430769 6.65307692-.02769231.17030769-.14123077 1.06661539.204 2.52830769.49753846 2.10830772 1.64676923 4.02600002 3.32261538 5.54446152l8.36076927 7.5872308 8.5043077-7.5867692c1.6758461-1.5189231 2.8250769-3.4361539 3.3226153-5.54492312.3452308-1.46123076.2316923-2.35753846.2044616-2.52784615zm-1.1030769 2.31646154c-.4541539 1.92553843-1.5069231 3.67984613-3.0415385 5.07000003l-7.8812308 7.0315384-7.74599998-7.0296923c-1.53738461-1.3929231-2.5896923-3.1467692-3.04430769-5.07230767-.32676923-1.38323077-.19246154-2.16461538-.192-2.16969231l.00692308-.04661538c.3-3.378 2.64507692-5.83015385 5.57676923-5.83015385 2.16323077 0 4.06753846 1.32923077 4.97123076 3.46846154l.4250769 1.00753846.425077-1.00753846c.8893846-2.10646154 2.8943076-3.468 5.1087692-3.468 2.9312308 0 5.2767692 2.45215385 5.5827692 5.874.0009231.00738462.1352308.78923077-.1915384 2.17246154z" fill-rule="evenodd" transform=""/></svg>