<svg height="23" viewBox="0 0 24 23" width="24" xmlns="http://www.w3.org/2000/svg"><path d="m12.3763636.42818182 2.4845455 7.71436363 8.112-.00872727c.3376364 0 .6147273.26836364.6147273.606 0 .19909091-.1036364.38072727-.2509091.49363637l-6.5710909 4.75309095 2.5194545 7.7138181c.1036364.3201819-.0692727.6578182-.3894545.762-.2078182.0692728-.4330909.0174546-.5885455-.1123636l-6.5110909-4.7536364-6.55363636 4.7792728c-.27709091.1990909-.65781819.1385454-.84818182-.1298182-.12109091-.1647273-.14727273-.3725455-.08672727-.5454546h-.00872728l2.52818182-7.7138181-6.57109091-4.75363641c-.27709091-.19909091-.33763636-.57981818-.13854545-.84872727.12981818-.18163637.32890909-.26836364.53672727-.25090909l8.06890909.00872727 2.49327271-7.71436364c.1036364-.32018181.4412727-.49363636.762-.39818181.1990909.06981818.3370909.21654545.3981818.39872727zm1.4629091 8.51018182-2.0432727-6.34581819-2.052 6.34636364c-.078.25090909-.31145455.42436364-.57981818.42436364l-6.66654546-.00927273 5.40218182 3.9049091c.20781818.156.30327273.4243636.21654546.684l-2.06890909 6.3376364 5.37654545-3.9218182c.2078182-.156.5023636-.1647273.7270909-.0087273l5.3847273 3.9305455-2.0607273-6.3114546c-.0954545-.2509091-.0174545-.5454545.2078182-.7101818l5.4109091-3.9049091-6.6490909.00872727c-.2678182.01745455-.5187273-.156-.6054546-.42436363z" fill="#1e201d" fill-rule="evenodd" transform=""/></svg>