<?xml version="1.0" encoding="UTF-8" standalone="no"?><!DOCTYPE svg PUBLIC "-//W3C//DTD SVG 1.1//EN" "http://www.w3.org/Graphics/SVG/1.1/DTD/svg11.dtd"><svg width="100%" height="100%" viewBox="0 0 16 24" version="1.1" xmlns="http://www.w3.org/2000/svg" xmlns:xlink="http://www.w3.org/1999/xlink" xml:space="preserve" xmlns:serif="http://www.serif.com/" style="fill-rule:evenodd;clip-rule:evenodd;stroke-linejoin:round;stroke-miterlimit:1.41421;"><g><path d="M7.886,0c-4.337,0 -7.865,3.526 -7.865,7.86c0,4.165 7.147,15.436 7.452,15.913c0.09,0.141 0.245,0.227 0.413,0.227c0.167,0 0.323,-0.086 0.413,-0.227c0.304,-0.477 7.452,-11.748 7.452,-15.913c0,-4.334 -3.529,-7.86 -7.865,-7.86Zm0,22.586c-0.647,-1.047 -1.96,-3.213 -3.26,-5.613c-2.372,-4.379 -3.626,-7.531 -3.626,-9.113c0,-3.794 3.089,-6.88 6.886,-6.88c3.796,0 6.885,3.086 6.885,6.88c0,1.582 -1.254,4.734 -3.626,9.113c-1.3,2.4 -2.612,4.566 -3.259,5.613Z"/><path d="M7.886,3.726c-2.052,0 -3.721,1.624 -3.721,3.619c0,1.996 1.669,3.619 3.721,3.619c2.051,0 3.72,-1.623 3.72,-3.619c0,-1.995 -1.669,-3.619 -3.72,-3.619Zm0,6.259c-1.512,0 -2.741,-1.184 -2.741,-2.64c0,-1.455 1.229,-2.64 2.741,-2.64c1.511,0 2.741,1.185 2.741,2.64c0,1.456 -1.23,2.64 -2.741,2.64Z"/></g></svg>