<?xml version="1.0" encoding="UTF-8" standalone="no"?><!DOCTYPE svg PUBLIC "-//W3C//DTD SVG 1.1//EN" "http://www.w3.org/Graphics/SVG/1.1/DTD/svg11.dtd"><svg width="100%" height="100%" viewBox="0 0 20 18" version="1.1" xmlns="http://www.w3.org/2000/svg" xmlns:xlink="http://www.w3.org/1999/xlink" xml:space="preserve" xmlns:serif="http://www.serif.com/" style="fill-rule:evenodd;clip-rule:evenodd;stroke-linejoin:round;stroke-miterlimit:1.41421;"><path d="M14.876,17.356c-2.18,0 -4.364,-0.7 -6.025,-2.101c-2.058,-1.735 -5.402,-1.733 -7.455,0c-0.635,0.537 -1.663,0.537 -2.298,0c-0.635,-0.536 -0.635,-1.403 0,-1.939c3.321,-2.802 8.727,-2.802 12.051,0c2.056,1.734 5.399,1.732 7.455,0c0.635,-0.536 1.663,-0.536 2.298,0c0.635,0.536 0.635,1.403 0,1.939c-1.659,1.401 -3.842,2.101 -6.026,2.101Zm0,-5.485c-2.18,0 -4.364,-0.701 -6.025,-2.101c-2.058,-1.735 -5.402,-1.734 -7.455,0c-0.635,0.536 -1.663,0.536 -2.298,0c-0.635,-0.537 -0.635,-1.403 0,-1.94c3.321,-2.801 8.727,-2.801 12.051,0c2.056,1.734 5.399,1.733 7.455,0c0.635,-0.536 1.663,-0.536 2.298,0c0.635,0.537 0.635,1.403 0,1.94c-1.659,1.4 -3.842,2.101 -6.026,2.101Zm0,-5.486c-2.18,0 -4.364,-0.701 -6.025,-2.101c-2.058,-1.735 -5.402,-1.734 -7.455,0c-0.635,0.536 -1.663,0.536 -2.298,0c-0.635,-0.536 -0.635,-1.403 0,-1.939c3.321,-2.801 8.727,-2.804 12.051,0c2.056,1.733 5.399,1.732 7.455,0c0.635,-0.537 1.663,-0.537 2.298,0c0.635,0.536 0.635,1.403 0,1.939c-1.659,1.4 -3.842,2.101 -6.026,2.101Z" style="fill:#fdd835;"/></svg>