<svg clip-rule="evenodd" fill-rule="evenodd" stroke-linejoin="round" stroke-miterlimit="1.41421" viewBox="0 0 20 15" xmlns="http://www.w3.org/2000/svg"><path d="m20.996 11.443c0 .555-.578 1.079-1.188 1.079-.78 0-1.245.345-1.911.895-.667.55-1.561 1.419-3.009 1.419-1.447 0-2.346-.869-3.008-1.419-.667-.555-1.102-.895-1.883-.895-.78 0-1.216.345-1.882.895-.667.55-1.561 1.419-3.009 1.419s-2.346-.869-3.008-1.419c-.667-.555-1.103-.895-1.884-.895-.609 0-1.187-.498-1.187-1.079 0-.58.578-1.079 1.187-1.053 1.623 0 2.749.842 3.473 1.449.724.606 1.102.868 1.448.868.345 0 .695-.262 1.419-.868.723-.607 1.854-1.449 3.471-1.449 1.618 0 2.721.842 3.473 1.449.724.606 1.102.868 1.448.868.344 0 .695-.262 1.419-.868.723-.607 1.853-1.449 3.471-1.449.582-.026 1.16.503 1.16 1.053zm-20.815-9.314c.781 0 1.217.314 1.884.868.666.555 1.56 1.419 3.008 1.419h.26c1.301-.103 2.115-.894 2.749-1.419.576-.473.983-.791 1.622-.868.085 0 .175-.026.288-.026.781 0 1.216.314 1.883.869.175.133.346.288.549.473.61.473 1.362.971 2.46.971h.26c1.301-.103 2.114-.894 2.748-1.419.577-.473.984-.791 1.623-.868.085 0 .175-.026.288-.026.146 0 .317-.026.436-.078.056-.025.146-.051.203-.103.317-.185.548-.524.548-.868 0-.134-.027-.289-.085-.396-.057-.133-.146-.237-.259-.344-.057-.052-.115-.103-.176-.133-.056-.026-.114-.078-.204-.104-.084-.025-.146-.051-.231-.051-.086-.026-.147-.026-.232-.026h-.288c-1.448.103-2.488.843-3.183 1.419-.64.525-.985.817-1.302.869-.057 0-.084.026-.113.026-.086 0-.175-.026-.261-.052-.175-.077-.406-.211-.666-.447-.147-.103-.317-.237-.492-.396-.724-.606-1.855-1.419-3.473-1.419h-.288c-1.448.103-2.488.843-3.183 1.419-.639.525-.985.817-1.302.869-.056 0-.084.026-.113.026-.085 0-.175-.026-.26-.052s-.203-.103-.316-.159c-.232-.133-.493-.37-.872-.658-.723-.606-1.853-1.419-3.471-1.419h-.113c-.611.026-1.16.555-1.103 1.105-.038.55.568 1.023 1.177.998zm19.598 3.053h-.288c-1.448.103-2.488.869-3.184 1.419-.639.525-.983.817-1.301.869-.056 0-.085.025-.113.025-.114 0-.26-.051-.407-.133-.26-.133-.577-.37-1.012-.761-.724-.606-1.855-1.449-3.472-1.449h-.289c-1.447.103-2.487.868-3.184 1.419-.638.524-.983.817-1.3.869-.057 0-.086.025-.113.025-.114 0-.261-.051-.407-.133-.057-.026-.113-.052-.175-.077-.232-.134-.493-.37-.871-.658-.724-.607-1.854-1.45-3.472-1.45-.61 0-1.187.499-1.187 1.08 0 .58.577 1.079 1.187 1.053.781 0 1.216.344 1.882.895.668.555 1.562 1.419 3.009 1.419h.261c1.301-.103 2.114-.895 2.747-1.419.407-.344.753-.606 1.131-.735.086-.026.148-.052.232-.078.085-.026.175-.026.26-.052.086 0 .176-.025.289-.025.78 0 1.216.344 1.882.894.175.133.346.288.549.473.611.473 1.363.972 2.46.972h.26c1.301-.103 2.115-.894 2.748-1.419.407-.344.753-.606 1.131-.735.085-.026.146-.052.232-.078.085-.026.175-.026.26-.051.086 0 .175-.026.289-.026.609 0 1.187-.499 1.187-1.054-.004-.555-.582-1.079-1.221-1.079z" fill="#00d79f"/></svg>