<svg clip-rule="evenodd" fill-rule="evenodd" stroke-linejoin="round" stroke-miterlimit="1.41421" viewBox="0 0 24 16" xmlns="http://www.w3.org/2000/svg"><path d="m20.976 4.967c-.185-.37-.563-.603-.976-.603s-.791.233-.976.603l-3.263 6.526-4.199-10.797c-.159-.408-.546-.682-.983-.696-.437-.012-.841.236-1.024.634l-4.071 8.82h-4.393c-.603 0-1.091.489-1.091 1.091 0 .603.488 1.091 1.091 1.091h5.091c.425 0 .812-.247.99-.634l3.287-7.122 4.16 10.697c.157.402.535.674.967.694.016.001.034.002.05.002.412 0 .79-.233.976-.604l3.388-6.775 1.933 3.866c.269.539.925.758 1.464.488.539-.269.757-.924.488-1.463z" fill="#fff"/></svg>