<svg clip-rule="evenodd" fill-rule="evenodd" stroke-linejoin="round" stroke-miterlimit="1.41421" viewBox="0 0 20 18" xmlns="http://www.w3.org/2000/svg"><path d="m14.114 17.356c-1.84 0-3.682-.7-5.084-2.101-1.736-1.735-4.557-1.733-6.289 0-.536.537-1.403.537-1.939 0-.536-.536-.536-1.403 0-1.939 2.802-2.802 7.363-2.802 10.168 0 1.734 1.734 4.555 1.732 6.289 0 .536-.536 1.403-.536 1.939 0s.536 1.403 0 1.939c-1.4 1.401-3.242 2.101-5.084 2.101zm0-5.485c-1.84 0-3.682-.701-5.084-2.101-1.736-1.735-4.557-1.734-6.289 0-.536.536-1.403.536-1.939 0-.536-.537-.536-1.403 0-1.94 2.802-2.801 7.363-2.801 10.168 0 1.734 1.734 4.555 1.733 6.289 0 .536-.536 1.403-.536 1.939 0 .536.537.536 1.403 0 1.94-1.4 1.4-3.242 2.101-5.084 2.101zm0-5.486c-1.84 0-3.682-.701-5.084-2.101-1.736-1.735-4.557-1.734-6.289 0-.536.536-1.403.536-1.939 0s-.536-1.403 0-1.939c2.802-2.801 7.363-2.804 10.168 0 1.734 1.733 4.555 1.732 6.289 0 .536-.537 1.403-.537 1.939 0 .536.536.536 1.403 0 1.939-1.4 1.4-3.242 2.101-5.084 2.101z" fill="#fff"/></svg>