<svg clip-rule="evenodd" fill-rule="evenodd" stroke-linejoin="round" stroke-miterlimit="1.41421" viewBox="0 0 24 19" xmlns="http://www.w3.org/2000/svg"><path d="m23.299.239c-.658-.424-1.506-.188-1.929.471l-6.635 10.823-2.494-3.247c-.612-.8-1.789-.753-2.306.094l-2.871 4.8-1.318-1.741c-.611-.8-1.835-.753-2.353.094l-3.2 5.318c-.517.894.048 2.117 1.177 2.117.471 0 .941-.235 1.223-.658l2.118-3.53 1.318 1.788c.612.8 1.835.753 2.353-.094l2.87-4.847 2.494 3.247c.612.8 1.789.706 2.306-.094l7.718-12.612c.423-.658.188-1.506-.471-1.929z" fill="#fff"/></svg>