<svg clip-rule="evenodd" fill-rule="evenodd" stroke-linejoin="round" stroke-miterlimit="1.41421" viewBox="0 0 24 16" xmlns="http://www.w3.org/2000/svg"><path d="m1.325 10.6c-.732 0-1.325.593-1.325 1.324v2.649c0 .732.593 1.326 1.325 1.326.731 0 1.324-.594 1.324-1.326v-2.649c0-.731-.594-1.324-1.324-1.324zm5.297-2.649c-.731 0-1.324.593-1.324 1.324v5.298c0 .732.593 1.325 1.324 1.325s1.325-.593 1.325-1.325v-5.298c0-.731-.594-1.324-1.325-1.324zm5.298-2.649c-.731 0-1.324.593-1.324 1.325v7.946c0 .732.593 1.325 1.324 1.325s1.325-.593 1.325-1.325v-7.947c0-.731-.594-1.324-1.325-1.324zm5.298-2.649c-.731 0-1.325.594-1.325 1.325v10.595c0 .732.594 1.325 1.325 1.325s1.324-.593 1.324-1.325v-10.595c0-.732-.593-1.325-1.324-1.325zm5.298-2.648c-.731 0-1.325.593-1.325 1.324v13.244c0 .731.594 1.325 1.325 1.325s1.324-.594 1.324-1.325v-13.244c0-.731-.593-1.324-1.324-1.324z" fill="#fff"/></svg>