<svg clip-rule="evenodd" fill-rule="evenodd" stroke-linejoin="round" stroke-miterlimit="1.41421" viewBox="0 0 20 15" xmlns="http://www.w3.org/2000/svg"><path d="m19.996 11.443c0 .555-.525 1.079-1.08 1.079-.709 0-1.131.345-1.737.895s-1.419 1.419-2.735 1.419-2.133-.869-2.735-1.419c-.606-.555-1.002-.895-1.712-.895-.709 0-1.105.345-1.711.895s-1.419 1.419-2.735 1.419-2.133-.869-2.735-1.419c-.606-.555-1.002-.895-1.712-.895-.554 0-1.079-.498-1.079-1.079 0-.58.525-1.079 1.079-1.053 1.475 0 2.499.842 3.157 1.449.658.606 1.002.868 1.316.868s.632-.262 1.29-.868c.658-.607 1.686-1.449 3.156-1.449 1.471 0 2.473.842 3.157 1.449.658.606 1.002.868 1.316.868.313 0 .632-.262 1.29-.868.658-.607 1.685-1.449 3.156-1.449.529-.026 1.054.503 1.054 1.053zm-18.922-9.314c.71 0 1.106.314 1.712.868.606.555 1.419 1.419 2.735 1.419h.236c1.183-.103 1.923-.894 2.499-1.419.524-.473.894-.791 1.475-.868.077 0 .159-.026.262-.026.71 0 1.105.314 1.712.869.159.133.314.288.499.473.554.473 1.238.971 2.236.971h.236c1.183-.103 1.922-.894 2.499-1.419.524-.473.894-.791 1.475-.868.077 0 .159-.026.262-.026.133 0 .288-.026.396-.078.051-.025.133-.051.185-.103.288-.185.498-.524.498-.868 0-.134-.025-.289-.077-.396-.052-.133-.133-.237-.236-.344-.052-.052-.104-.103-.16-.133-.051-.026-.103-.078-.185-.104-.077-.025-.133-.051-.21-.051-.078-.026-.134-.026-.211-.026h-.262c-1.316.103-2.262.843-2.894 1.419-.581.525-.895.817-1.183.869-.052 0-.077.026-.103.026-.078 0-.159-.026-.237-.052-.159-.077-.369-.211-.606-.447-.133-.103-.288-.237-.447-.396-.658-.606-1.686-1.419-3.157-1.419h-.262c-1.316.103-2.262.843-2.894 1.419-.581.525-.895.817-1.183.869-.051 0-.077.026-.103.026-.077 0-.159-.026-.236-.052-.078-.026-.185-.103-.288-.159-.211-.133-.448-.37-.792-.658-.658-.606-1.685-1.419-3.156-1.419h-.103c-.555.026-1.054.555-1.002 1.105-.035.55.516 1.023 1.07.998zm17.816 3.053h-.262c-1.316.103-2.262.869-2.894 1.419-.581.525-.894.817-1.183.869-.051 0-.077.025-.103.025-.103 0-.236-.051-.37-.133-.236-.133-.524-.37-.92-.761-.658-.606-1.686-1.449-3.156-1.449h-.263c-1.315.103-2.261.868-2.894 1.419-.58.524-.894.817-1.182.869-.052 0-.078.025-.103.025-.104 0-.237-.051-.37-.133-.052-.026-.103-.052-.159-.077-.211-.134-.448-.37-.792-.658-.658-.607-1.685-1.45-3.156-1.45-.555 0-1.079.499-1.079 1.08 0 .58.524 1.079 1.079 1.053.71 0 1.105.344 1.711.895.607.555 1.42 1.419 2.735 1.419h.237c1.183-.103 1.922-.895 2.498-1.419.37-.344.684-.606 1.028-.735.078-.026.134-.052.211-.078s.159-.026.236-.052c.078 0 .16-.025.263-.025.709 0 1.105.344 1.711.894.159.133.314.288.499.473.555.473 1.239.972 2.236.972h.237c1.182-.103 1.922-.894 2.498-1.419.37-.344.684-.606 1.028-.735.077-.026.133-.052.211-.078.077-.026.159-.026.236-.051.078 0 .159-.026.263-.026.554 0 1.079-.499 1.079-1.054-.004-.555-.529-1.079-1.11-1.079z" fill="#fff"/></svg>