<?xml version="1.0" encoding="UTF-8" standalone="no"?><!DOCTYPE svg PUBLIC "-//W3C//DTD SVG 1.1//EN" "http://www.w3.org/Graphics/SVG/1.1/DTD/svg11.dtd"><svg width="100%" height="100%" viewBox="0 0 25 24" version="1.1" xmlns="http://www.w3.org/2000/svg" xmlns:xlink="http://www.w3.org/1999/xlink" xml:space="preserve" xmlns:serif="http://www.serif.com/" style="fill-rule:evenodd;clip-rule:evenodd;stroke-linejoin:round;stroke-miterlimit:1.41421;"><path d="M0.935,6.556c-0.516,0 -0.935,0.418 -0.935,0.935l0,9.009c0,0.517 0.419,0.935 0.935,0.935c0.517,0 0.935,-0.418 0.935,-0.935l0,-9.009c0,-0.517 -0.418,-0.935 -0.935,-0.935Zm4.466,-2.702c-0.517,0 -0.935,0.418 -0.935,0.935l0,14.413c0,0.517 0.418,0.935 0.935,0.935c0.516,0 0.935,-0.418 0.935,-0.935l0,-14.413c0,-0.517 -0.419,-0.935 -0.935,-0.935Zm4.466,-3.761c-0.517,0 -0.935,0.419 -0.935,0.935l0,21.935c0,0.516 0.418,0.935 0.935,0.935c0.516,0 0.935,-0.419 0.935,-0.935l0,-21.935c0,-0.516 -0.419,-0.935 -0.935,-0.935Zm4.465,5.451c-0.516,0 -0.935,0.419 -0.935,0.935l0,11.033c0,0.517 0.419,0.935 0.935,0.935c0.517,0 0.935,-0.418 0.935,-0.935l0,-11.033c0,-0.516 -0.418,-0.935 -0.935,-0.935Zm4.466,1.012c-0.516,0 -0.935,0.418 -0.935,0.935l0,9.009c0,0.517 0.419,0.935 0.935,0.935c0.516,0 0.935,-0.418 0.935,-0.935l0,-9.009c0,-0.517 -0.419,-0.935 -0.935,-0.935Zm4.466,2.994c-0.517,0 -0.935,0.419 -0.935,0.935l0,3.021c0,0.517 0.418,0.935 0.935,0.935c0.516,0 0.935,-0.418 0.935,-0.935l0,-3.021c0,-0.516 -0.419,-0.935 -0.935,-0.935Z" style="fill:#00d79f;"/></svg>