<svg clip-rule="evenodd" fill-rule="evenodd" stroke-linejoin="round" stroke-miterlimit="1.41421" viewBox="0 0 25 24" xmlns="http://www.w3.org/2000/svg"><path d="m.935 6.556c-.516 0-.935.418-.935.935v9.009c0 .517.419.935.935.935.517 0 .935-.418.935-.935v-9.009c0-.517-.418-.935-.935-.935zm4.466-2.702c-.517 0-.935.418-.935.935v14.413c0 .517.418.935.935.935.516 0 .935-.418.935-.935v-14.413c0-.517-.419-.935-.935-.935zm4.466-3.761c-.517 0-.935.419-.935.935v21.935c0 .516.418.935.935.935.516 0 .935-.419.935-.935v-21.935c0-.516-.419-.935-.935-.935zm4.465 5.451c-.516 0-.935.419-.935.935v11.033c0 .517.419.935.935.935.517 0 .935-.418.935-.935v-11.033c0-.516-.418-.935-.935-.935zm4.466 1.012c-.516 0-.935.418-.935.935v9.009c0 .517.419.935.935.935s.935-.418.935-.935v-9.009c0-.517-.419-.935-.935-.935zm4.466 2.994c-.517 0-.935.419-.935.935v3.021c0 .517.418.935.935.935.516 0 .935-.418.935-.935v-3.021c0-.516-.419-.935-.935-.935z" fill="#fff"/></svg>