<svg clip-rule="evenodd" fill-rule="evenodd" viewBox="0 0 24 24" xmlns="http://www.w3.org/2000/svg"><path d="m1.851 15.193c-.47 0-.851.381-.851.85v5.678c0 .47.381.851.851.851s.852-.382.852-.851v-5.678c0-.47-.381-.85-.852-.85zm3.384-5.677c-.47 0-.852.381-.852.851v11.354c0 .471.382.852.852.852s.851-.382.851-.852v-11.354c0-.47-.381-.851-.851-.851zm3.382 2.838c-.47 0-.851.382-.851.851v8.516c0 .47.381.851.851.851s.852-.382.852-.851v-8.515c0-.471-.382-.852-.852-.852zm3.383-5.677c-.469 0-.851.381-.851.852v14.192c0 .47.382.851.851.851.47 0 .852-.381.852-.851v-14.192c0-.471-.382-.852-.852-.852zm3.384-5.677c-.47 0-.852.381-.852.851v19.87c0 .47.382.851.852.851.469 0 .851-.381.851-.851v-19.87c0-.47-.382-.851-.851-.851zm3.382 8.516c-.47 0-.851.381-.851.851v11.354c0 .47.381.851.851.851s.851-.381.851-.851v-11.354c.001-.47-.381-.851-.851-.851zm3.383 8.515c-.47 0-.851.381-.851.851v2.839c0 .47.381.851.851.851s.851-.382.851-.851v-2.839c.001-.47-.381-.851-.851-.851z" fill="#fff" stroke="#fff"/></svg>