<svg clip-rule="evenodd" fill-rule="evenodd" stroke-linejoin="round" stroke-miterlimit="1.41421" viewBox="0 0 20 16" xmlns="http://www.w3.org/2000/svg"><path d="m19.269 12.878h-18.555c-.194 0-.361.071-.502.212s-.212.308-.212.502v1.427c0 .193.071.361.212.502s.309.212.502.212h18.555c.193 0 .361-.071.502-.212s.212-.309.212-.502v-1.427c0-.194-.071-.361-.212-.502s-.309-.212-.502-.212zm0-4.282h-14.273c-.194 0-.361.071-.502.212s-.212.309-.212.502v1.427c0 .193.071.361.212.502s.308.212.502.212h14.273c.193 0 .361-.071.502-.212s.212-.309.212-.502v-1.427c0-.193-.071-.361-.212-.502s-.309-.212-.502-.212zm0-4.282h-17.128c-.193 0-.361.071-.502.212s-.212.308-.212.502v1.427c0 .193.071.361.212.502.142.141.309.212.502.212h17.128c.193 0 .361-.071.502-.212s.212-.309.212-.502v-1.427c0-.194-.071-.361-.212-.502s-.309-.212-.502-.212zm.502-4.07c-.141-.141-.309-.212-.502-.212h-12.846c-.193 0-.36.071-.502.212-.141.141-.212.308-.212.502v1.427c0 .193.071.361.212.502.142.141.309.212.502.212h12.846c.193 0 .361-.071.502-.212s.212-.309.212-.502v-1.427c0-.194-.071-.361-.212-.502z" fill="#fff"/></svg>