<svg clip-rule="evenodd" fill-rule="evenodd" stroke-linejoin="round" stroke-miterlimit="1.41421" viewBox="0 0 24 23" xmlns="http://www.w3.org/2000/svg"><path d="m2.629 13.169v-5.258c0-.726-.588-1.315-1.315-1.315-.726 0-1.314.589-1.314 1.315v5.258c0 .726.588 1.314 1.314 1.314.727 0 1.315-.588 1.315-1.314zm4.236 5.477v-15.336c0-.726-.589-1.314-1.315-1.314s-1.314.588-1.314 1.314v15.336c0 .726.588 1.315 1.314 1.315s1.315-.589 1.315-1.315zm4.235-2.264v-8.471c0-.726-.588-1.315-1.314-1.315s-1.315.589-1.315 1.315v8.471c0 .726.589 1.315 1.315 1.315s1.314-.589 1.314-1.315zm11.538-7.156c-.726 0-1.314.588-1.314 1.314v7.304c0 .726.588 1.314 1.314 1.314.727 0 1.315-.588 1.315-1.314v-7.304c0-.726-.588-1.314-1.315-1.314zm-4.235-9.202c-.726 0-1.314.588-1.314 1.314v19.937c0 .726.588 1.315 1.314 1.315s1.315-.589 1.315-1.315v-19.937c0-.725-.589-1.314-1.315-1.314zm-4.236 19.134c.727 0 1.315-.588 1.315-1.315v-12.67c0-.726-.588-1.315-1.315-1.315-.726 0-1.314.589-1.314 1.315v12.67c0 .727.588 1.315 1.314 1.315z" fill="#fff"/></svg>