<svg clip-rule="evenodd" fill-rule="evenodd" stroke-linejoin="round" stroke-miterlimit="1.41421" viewBox="0 0 22 21" xmlns="http://www.w3.org/2000/svg"><path d="m1.893.08c-1.045 0-1.893.848-1.893 1.893v16.66c0 1.045.848 1.893 1.893 1.893 1.046 0 1.893-.848 1.893-1.893v-16.66c0-1.045-.847-1.893-1.893-1.893zm4.544 3.787c-1.046 0-1.893.847-1.893 1.893v12.873c0 1.045.847 1.893 1.893 1.893 1.045 0 1.893-.848 1.893-1.893v-12.873c0-1.046-.848-1.893-1.893-1.893zm4.543 6.815c-1.046 0-1.893.847-1.893 1.893v6.058c0 1.045.847 1.893 1.893 1.893 1.045 0 1.893-.848 1.893-1.893v-6.058c0-1.046-.848-1.893-1.893-1.893zm4.543-4.544c-1.045 0-1.893.848-1.893 1.893v10.602c0 1.045.848 1.893 1.893 1.893 1.046 0 1.893-.848 1.893-1.893v-10.602c0-1.045-.847-1.893-1.893-1.893zm4.544-6.058c-1.046 0-1.893.848-1.893 1.893v16.66c0 1.045.847 1.893 1.893 1.893 1.045 0 1.893-.848 1.893-1.893v-16.66c0-1.045-.848-1.893-1.893-1.893z" fill="#fff"/></svg>