<svg clip-rule="evenodd" fill-rule="evenodd" stroke-linejoin="round" stroke-miterlimit="1.41421" viewBox="0 0 20 23" xmlns="http://www.w3.org/2000/svg"><path d="m1.429 4.286c-.789 0-1.429.639-1.429 1.428v11.429c0 .789.64 1.428 1.429 1.428.788 0 1.428-.639 1.428-1.428v-11.429c0-.789-.64-1.428-1.428-1.428zm4.285 2.857c-.789 0-1.428.639-1.428 1.428v5.715c0 .789.639 1.428 1.428 1.428s1.429-.639 1.429-1.428v-5.715c0-.789-.64-1.428-1.429-1.428zm4.286-7.143c-.789 0-1.429.64-1.429 1.429v20c0 .788.64 1.428 1.429 1.428s1.429-.64 1.429-1.428v-20c0-.789-.64-1.429-1.429-1.429zm4.286 3.571c-.789 0-1.429.64-1.429 1.429v12.857c0 .789.64 1.429 1.429 1.429s1.428-.64 1.428-1.429v-12.857c0-.789-.639-1.429-1.428-1.429zm4.285 3.572c-.789 0-1.428.639-1.428 1.428v5.715c0 .789.639 1.428 1.428 1.428s1.429-.639 1.429-1.428v-5.715c0-.789-.64-1.428-1.429-1.428z" fill="#fff"/></svg>