<?xml version="1.0" encoding="UTF-8" standalone="no"?><!DOCTYPE svg PUBLIC "-//W3C//DTD SVG 1.1//EN" "http://www.w3.org/Graphics/SVG/1.1/DTD/svg11.dtd"><svg width="100%" height="100%" viewBox="0 0 20 23" version="1.1" xmlns="http://www.w3.org/2000/svg" xmlns:xlink="http://www.w3.org/1999/xlink" xml:space="preserve" xmlns:serif="http://www.serif.com/" style="fill-rule:evenodd;clip-rule:evenodd;stroke-linejoin:round;stroke-miterlimit:1.41421;"><path d="M1.429,4.286c-0.789,0 -1.429,0.639 -1.429,1.428l0,11.429c0,0.789 0.64,1.428 1.429,1.428c0.788,0 1.428,-0.639 1.428,-1.428l0,-11.429c0,-0.789 -0.64,-1.428 -1.428,-1.428Zm4.285,2.857c-0.789,0 -1.428,0.639 -1.428,1.428l0,5.715c0,0.789 0.639,1.428 1.428,1.428c0.789,0 1.429,-0.639 1.429,-1.428l0,-5.715c0,-0.789 -0.64,-1.428 -1.429,-1.428Zm4.286,-7.143c-0.789,0 -1.429,0.64 -1.429,1.429l0,20c0,0.788 0.64,1.428 1.429,1.428c0.789,0 1.429,-0.64 1.429,-1.428l0,-20c0,-0.789 -0.64,-1.429 -1.429,-1.429Zm4.286,3.571c-0.789,0 -1.429,0.64 -1.429,1.429l0,12.857c0,0.789 0.64,1.429 1.429,1.429c0.789,0 1.428,-0.64 1.428,-1.429l0,-12.857c0,-0.789 -0.639,-1.429 -1.428,-1.429Zm4.285,3.572c-0.789,0 -1.428,0.639 -1.428,1.428l0,5.715c0,0.789 0.639,1.428 1.428,1.428c0.789,0 1.429,-0.639 1.429,-1.428l0,-5.715c0,-0.789 -0.64,-1.428 -1.429,-1.428Z" style="fill:#d81b60;"/></svg>