<svg clip-rule="evenodd" fill-rule="evenodd" stroke-linejoin="round" stroke-miterlimit="1.41421" viewBox="0 0 24 22" xmlns="http://www.w3.org/2000/svg"><path d="m23.841 8.426-1.152-1.646c-.008.005-.014.01-.021.015-1.305.914-3.104.597-4.019-.708-.914-1.305-.597-3.104.708-4.018.008-.005.015-.009.022-.014l-1.153-1.646c-.278-.396-.824-.493-1.221-.215l-4.56 3.194.998 1.425-1.082.757-.997-1.424-10.99 7.698c-.397.277-.493.824-.215 1.221l5.615 8.016c.278.397.825.493 1.221.215l10.99-7.698-.986-1.407 1.082-.758.985 1.408 4.56-3.195c.396-.278.493-.824.215-1.22zm-10.71-1.809 1.082-.758 1.295 1.849-1.083.757zm3.17 4.577-1.195-1.705 1.082-.757 1.195 1.705z"/></svg>