<?xml version="1.0" encoding="UTF-8" standalone="no"?><!DOCTYPE svg PUBLIC "-//W3C//DTD SVG 1.1//EN" "http://www.w3.org/Graphics/SVG/1.1/DTD/svg11.dtd"><svg width="100%" height="100%" viewBox="0 0 24 24" version="1.1" xmlns="http://www.w3.org/2000/svg" xmlns:xlink="http://www.w3.org/1999/xlink" xml:space="preserve" xmlns:serif="http://www.serif.com/" style="fill-rule:evenodd;clip-rule:evenodd;stroke-linejoin:round;stroke-miterlimit:1.41421;"><path d="M23.752,11.401l-11.153,-11.153c-0.145,-0.145 -0.372,-0.248 -0.599,-0.248c-0.227,0 -0.454,0.103 -0.599,0.248l-11.153,11.153c-0.331,0.33 -0.331,0.868 0,1.198c0.165,0.165 0.372,0.248 0.599,0.248c0.227,0 0.434,-0.083 0.599,-0.248l9.707,-9.707l0,20.261c0,0.475 0.372,0.847 0.847,0.847c0.475,0 0.847,-0.372 0.847,-0.847l0,-20.261l9.707,9.707c0.331,0.33 0.868,0.33 1.198,0c0.331,-0.33 0.31,-0.868 0,-1.198Z" style="fill:#767676;"/></svg>