<svg clip-rule="evenodd" fill-rule="evenodd" stroke-linejoin="round" stroke-miterlimit="1.41421" viewBox="0 0 24 24" xmlns="http://www.w3.org/2000/svg"><path d="m15.634 2.679c-3.571-3.572-9.384-3.572-12.955 0s-3.571 9.384 0 12.956c3.18 3.179 8.133 3.52 11.702 1.037.076.356.247.695.524.971l5.201 5.201c.758.757 1.983.757 2.737 0 .757-.757.757-1.982 0-2.737l-5.201-5.202c-.275-.274-.615-.447-.971-.522 2.485-3.57 2.144-8.522-1.037-11.704zm-1.642 11.314c-2.666 2.666-7.006 2.666-9.671 0-2.665-2.667-2.665-7.005 0-9.671s7.005-2.666 9.671 0 2.666 7.004 0 9.671z" fill="#fff"/></svg>