<?xml version="1.0" encoding="UTF-8" standalone="no"?><!DOCTYPE svg PUBLIC "-//W3C//DTD SVG 1.1//EN" "http://www.w3.org/Graphics/SVG/1.1/DTD/svg11.dtd"><svg width="100%" height="100%" viewBox="0 0 24 24" version="1.1" xmlns="http://www.w3.org/2000/svg" xmlns:xlink="http://www.w3.org/1999/xlink" xml:space="preserve" xmlns:serif="http://www.serif.com/" style="fill-rule:evenodd;clip-rule:evenodd;stroke-linejoin:round;stroke-miterlimit:1.41421;"><path d="M11.401,0.248l-11.153,11.153c-0.145,0.145 -0.248,0.372 -0.248,0.599c0,0.227 0.103,0.454 0.248,0.599l11.153,11.153c0.33,0.331 0.868,0.331 1.198,0c0.165,-0.165 0.248,-0.372 0.248,-0.599c0,-0.227 -0.083,-0.434 -0.248,-0.599l-9.707,-9.707l20.261,0c0.475,0 0.847,-0.372 0.847,-0.847c0,-0.475 -0.372,-0.847 -0.847,-0.847l-20.261,0l9.707,-9.707c0.33,-0.331 0.33,-0.868 0,-1.198c-0.33,-0.331 -0.868,-0.31 -1.198,0Z" style="fill:#fff;"/></svg>