<svg clip-rule="evenodd" fill-rule="evenodd" stroke-linejoin="round" stroke-miterlimit="1.41421" viewBox="0 0 24 23" xmlns="http://www.w3.org/2000/svg"><path d="m20.044 11.057c-.39 0-.692.3-.692.692v9.455h-4.905v-3.861c0-.362-.302-.678-.667-.678h-3.546c-.39 0-.704.316-.704.678v3.861h-4.893v-9.141c0-.365-.302-.668-.692-.668-.364 0-.666.303-.666.668v9.834c0 .364.302.668.666.668h6.289c.365 0 .666-.304.666-.668v-3.861h2.189v3.861c0 .364.302.668.691.668h6.264c.364 0 .666-.304.666-.668v-10.148c0-.391-.302-.692-.666-.692zm3.76.539-5.458-5.481v-3.738c0-.389-.315-.689-.704-.689-.365 0-.667.3-.667.689v2.367l-4.503-4.529c-.138-.14-.301-.215-.465-.215-.188 0-.352.078-.49.215l-11.307 11.306c-.271.271-.289.706 0 .955.252.29.685.271.956 0l10.841-10.815 10.816 10.917c.113.113.277.177.491.177.188 0 .352-.064.49-.177.252-.252.271-.708 0-.982z" fill="#c2c2c2"/></svg>