<?xml version="1.0" encoding="UTF-8" standalone="no"?><!DOCTYPE svg PUBLIC "-//W3C//DTD SVG 1.1//EN" "http://www.w3.org/Graphics/SVG/1.1/DTD/svg11.dtd"><svg width="100%" height="100%" viewBox="0 0 53 20" version="1.1" xmlns="http://www.w3.org/2000/svg" xmlns:xlink="http://www.w3.org/1999/xlink" xml:space="preserve" xmlns:serif="http://www.serif.com/" style="fill-rule:evenodd;clip-rule:evenodd;stroke-linejoin:round;stroke-miterlimit:1.41421;"><g id="Visa-light"><path id="Fill-1" d="M19.192,17.637l2.46,-15.259l3.932,0l-2.46,15.259l-3.932,0" style="fill:#26337a;"/><path id="Fill-2" d="M33.863,2.112c-3.887,0 -6.624,2.071 -6.646,5.036c-0.025,2.194 1.952,3.417 3.443,4.146c1.532,0.747 2.047,1.225 2.041,1.894c-0.011,1.022 -1.223,1.49 -2.354,1.49c-1.574,0 -2.41,-0.231 -3.703,-0.8l-0.506,-0.243l-0.55,3.415c0.917,0.425 2.617,0.794 4.381,0.814c4.131,0 6.816,-2.046 6.847,-5.213c0.014,-1.739 -1.034,-3.057 -3.303,-4.146c-1.374,-0.707 -2.217,-1.176 -2.207,-1.892c0.001,-0.634 0.712,-1.313 2.252,-1.313c1.286,-0.021 2.217,0.276 2.943,0.586l0.353,0.175l0.532,-3.308c-0.777,-0.307 -2,-0.641 -3.523,-0.641Z" style="fill:#26337a;"/><path id="Fill-3" d="M42.622,12.227c0.326,-0.877 1.566,-4.265 1.566,-4.265c-0.023,0.04 0.324,-0.884 0.523,-1.456l0.265,1.316c0,0 0.755,3.643 0.91,4.405l-3.264,0Zm4.851,-9.833l-3.039,0c-0.943,0 -1.648,0.27 -2.061,1.265l-5.839,13.984l4.13,0c0,0 0.674,-1.881 0.826,-2.294c0.451,0 4.464,0.008 5.037,0.008c0.117,0.532 0.478,2.286 0.478,2.286l3.65,0l-3.182,-15.249Z" style="fill:#26337a;"/><path id="Fill-4" d="M15.893,2.391l-3.848,10.403l-0.412,-2.115c-0.717,-2.436 -2.95,-5.077 -5.447,-6.4l3.521,13.345l4.161,-0.002l6.192,-15.231l-4.167,0" style="fill:#26337a;"/><path id="Fill-5" d="M8.472,2.381l-6.34,0l-0.052,0.316c4.933,1.264 8.198,4.315 9.553,7.982l-1.378,-7.011c-0.238,-0.967 -0.929,-1.254 -1.783,-1.287" style="fill:#ec982d;"/></g></svg>