<?xml version="1.0" encoding="UTF-8" standalone="no"?><!DOCTYPE svg PUBLIC "-//W3C//DTD SVG 1.1//EN" "http://www.w3.org/Graphics/SVG/1.1/DTD/svg11.dtd"><svg width="100%" height="100%" viewBox="0 0 56 19" version="1.1" xmlns="http://www.w3.org/2000/svg" xmlns:xlink="http://www.w3.org/1999/xlink" xml:space="preserve" xmlns:serif="http://www.serif.com/" style="fill-rule:evenodd;clip-rule:evenodd;stroke-linejoin:round;stroke-miterlimit:1.41421;"><g id="Paypal-light"><path id="Shape" d="M37.418,6.442c-0.211,1.388 -1.271,1.388 -2.297,1.388l-0.583,0l0.409,-2.591c0.025,-0.157 0.16,-0.272 0.318,-0.272l0.268,0c0.698,0 1.357,0 1.697,0.397c0.203,0.238 0.265,0.591 0.188,1.078m-0.446,-3.621l-3.867,0c-0.265,0 -0.49,0.192 -0.531,0.453l-1.564,9.916c-0.031,0.195 0.121,0.372 0.318,0.372l1.985,0c0.185,0 0.342,-0.134 0.371,-0.317l0.444,-2.811c0.041,-0.261 0.266,-0.454 0.53,-0.454l1.224,0c2.547,0 4.017,-1.232 4.401,-3.676c0.173,-1.068 0.007,-1.907 -0.493,-2.495c-0.55,-0.646 -1.524,-0.988 -2.818,-0.988" style="fill:#0079c1;"/><path id="Shape1" serif:id="Shape" d="M9.837,6.442c-0.211,1.388 -1.271,1.388 -2.297,1.388l-0.583,0l0.409,-2.591c0.025,-0.157 0.16,-0.272 0.318,-0.272l0.268,0c0.698,0 1.357,0 1.697,0.397c0.204,0.238 0.265,0.591 0.188,1.078m-0.446,-3.621l-3.867,0c-0.265,0 -0.49,0.192 -0.531,0.453l-1.564,9.916c-0.031,0.195 0.121,0.372 0.318,0.372l1.847,0c0.264,0 0.489,-0.192 0.531,-0.453l0.422,-2.675c0.041,-0.261 0.266,-0.454 0.53,-0.454l1.224,0c2.547,0 4.017,-1.232 4.401,-3.676c0.173,-1.068 0.007,-1.907 -0.493,-2.495c-0.55,-0.646 -1.524,-0.988 -2.818,-0.988" style="fill:#00457c;"/><path id="Shape2" serif:id="Shape" d="M18.368,10.002c-0.179,1.058 -1.018,1.768 -2.09,1.768c-0.537,0 -0.967,-0.173 -1.243,-0.5c-0.274,-0.324 -0.377,-0.786 -0.29,-1.3c0.166,-1.049 1.02,-1.782 2.075,-1.782c0.526,0 0.953,0.175 1.234,0.505c0.284,0.332 0.396,0.797 0.314,1.309m2.581,-3.604l-1.852,0c-0.158,0 -0.293,0.115 -0.318,0.272l-0.082,0.518l-0.129,-0.188c-0.401,-0.582 -1.295,-0.777 -2.188,-0.777c-2.045,0 -3.793,1.551 -4.133,3.725c-0.177,1.085 0.075,2.122 0.69,2.845c0.565,0.665 1.371,0.941 2.332,0.941c1.649,0 2.563,-1.059 2.563,-1.059l-0.082,0.515c-0.031,0.195 0.12,0.372 0.318,0.372l1.667,0c0.265,0 0.49,-0.192 0.531,-0.453l1.002,-6.339c0.03,-0.195 -0.121,-0.372 -0.319,-0.372" style="fill:#00457c;"/><path id="Shape3" serif:id="Shape" d="M45.949,10.002c-0.179,1.058 -1.018,1.768 -2.09,1.768c-0.537,0 -0.967,-0.173 -1.243,-0.5c-0.274,-0.324 -0.377,-0.786 -0.29,-1.3c0.166,-1.049 1.02,-1.782 2.075,-1.782c0.526,0 0.953,0.175 1.234,0.505c0.284,0.332 0.396,0.797 0.314,1.309m2.581,-3.604l-1.852,0c-0.158,0 -0.293,0.115 -0.318,0.272l-0.082,0.518l-0.129,-0.188c-0.401,-0.582 -1.295,-0.777 -2.187,-0.777c-2.046,0 -3.794,1.551 -4.134,3.725c-0.177,1.085 0.075,2.122 0.69,2.845c0.565,0.665 1.371,0.941 2.332,0.941c1.649,0 2.563,-1.059 2.563,-1.059l-0.082,0.515c-0.031,0.195 0.12,0.372 0.318,0.372l1.667,0c0.265,0 0.49,-0.192 0.531,-0.453l1.002,-6.339c0.03,-0.195 -0.121,-0.372 -0.319,-0.372" style="fill:#0079c1;"/><path id="Shape4" serif:id="Shape" d="M30.811,6.398l-1.861,0c-0.178,0 -0.345,0.088 -0.444,0.236l-2.568,3.781l-1.088,-3.634c-0.068,-0.227 -0.278,-0.383 -0.515,-0.383l-1.829,0c-0.221,0 -0.377,0.217 -0.305,0.426l2.049,6.016l-1.928,2.72c-0.151,0.213 0.002,0.508 0.264,0.508l1.859,0c0.176,0 0.341,-0.086 0.442,-0.231l6.189,-8.933c0.148,-0.214 -0.005,-0.506 -0.265,-0.506" style="fill:#00457c;"/><path id="Shape5" serif:id="Shape" d="M50.712,3.093l-1.587,10.097c-0.03,0.196 0.121,0.373 0.319,0.373l1.596,0c0.264,0 0.49,-0.193 0.53,-0.454l1.566,-9.916c0.03,-0.195 -0.121,-0.372 -0.319,-0.372l-1.786,0c-0.159,0 -0.294,0.115 -0.319,0.272" style="fill:#0079c1;"/></g></svg>