<?xml version="1.0" encoding="UTF-8" standalone="no"?><!DOCTYPE svg PUBLIC "-//W3C//DTD SVG 1.1//EN" "http://www.w3.org/Graphics/SVG/1.1/DTD/svg11.dtd"><svg width="100%" height="100%" viewBox="0 0 58 35" version="1.1" xmlns="http://www.w3.org/2000/svg" xmlns:xlink="http://www.w3.org/1999/xlink" xml:space="preserve" xmlns:serif="http://www.serif.com/" style="fill-rule:evenodd;clip-rule:evenodd;stroke-linejoin:round;stroke-miterlimit:1.41421;"><g id="MasterCard-light"><path id="Fill-333" d="M33.903,17.388c0,8.623 -6.989,15.612 -15.612,15.612c-8.622,0 -15.612,-6.989 -15.612,-15.612c0,-8.622 6.99,-15.612 15.612,-15.612c8.623,0 15.612,6.99 15.612,15.612" style="fill:#c00;"/><path id="Fill-334" d="M39.251,1.776c-4.035,0 -7.71,1.531 -10.481,4.041c-0.564,0.512 -1.09,1.065 -1.576,1.653l3.155,0c0.43,0.524 0.827,1.076 1.19,1.653l-5.535,0c-0.331,0.531 -0.632,1.083 -0.9,1.654l7.334,0c0.251,0.535 0.471,1.086 0.661,1.653l-8.656,0c-0.18,0.538 -0.332,1.09 -0.453,1.652l9.562,0c0.229,1.066 0.351,2.172 0.351,3.306c0,1.734 -0.283,3.402 -0.804,4.96l-8.656,0c0.19,0.566 0.411,1.118 0.661,1.654l7.334,0c-0.268,0.57 -0.568,1.121 -0.901,1.653l-5.533,0c0.361,0.576 0.759,1.128 1.19,1.652l3.154,0c-0.485,0.589 -1.012,1.141 -1.577,1.653c2.771,2.511 6.445,4.04 10.48,4.04c8.622,0 15.612,-6.989 15.612,-15.612c0,-8.621 -6.99,-15.612 -15.612,-15.612" style="fill:#f90;"/><path id="Fill-336" d="M14.645,19.098c-0.177,-0.021 -0.256,-0.027 -0.378,-0.027c-0.961,0 -1.447,0.33 -1.447,0.981c0,0.401 0.238,0.655 0.608,0.655c0.69,0 1.188,-0.657 1.217,-1.609Zm1.233,2.869l-1.405,0l0.033,-0.667c-0.429,0.527 -1,0.778 -1.777,0.778c-0.918,0 -1.548,-0.717 -1.548,-1.758c0,-1.569 1.095,-2.483 2.976,-2.483c0.192,0 0.439,0.017 0.691,0.049c0.052,-0.212 0.066,-0.303 0.066,-0.417c0,-0.427 -0.295,-0.587 -1.087,-0.587c-0.829,-0.008 -1.513,0.198 -1.794,0.291c0.018,-0.107 0.235,-1.449 0.235,-1.449c0.844,-0.248 1.401,-0.341 2.028,-0.341c1.456,0 2.227,0.654 2.225,1.889c0.003,0.331 -0.052,0.738 -0.137,1.276c-0.147,0.932 -0.463,2.932 -0.506,3.419Z" style="fill:#006;"/><path id="Fill-337" d="M10.472,21.967l-1.695,0l0.971,-6.087l-2.168,6.087l-1.155,0l-0.143,-6.053l-1.02,6.053l-1.587,0l1.325,-7.919l2.438,0l0.147,4.433l1.487,-4.433l2.711,0l-1.311,7.919" style="fill:#006;"/><path id="Fill-338" d="M41.345,19.098c-0.177,-0.021 -0.255,-0.027 -0.377,-0.027c-0.961,0 -1.447,0.33 -1.447,0.981c0,0.401 0.237,0.655 0.608,0.655c0.69,0 1.188,-0.657 1.216,-1.609Zm1.234,2.869l-1.404,0l0.032,-0.667c-0.429,0.527 -1,0.778 -1.776,0.778c-0.92,0 -1.549,-0.717 -1.549,-1.758c0,-1.569 1.096,-2.483 2.976,-2.483c0.192,0 0.438,0.017 0.69,0.049c0.053,-0.212 0.066,-0.303 0.066,-0.417c0,-0.427 -0.295,-0.587 -1.086,-0.587c-0.83,-0.008 -1.513,0.198 -1.795,0.291c0.018,-0.107 0.236,-1.449 0.236,-1.449c0.844,-0.248 1.402,-0.341 2.028,-0.341c1.456,0 2.226,0.654 2.225,1.889c0.003,0.331 -0.052,0.738 -0.137,1.276c-0.147,0.932 -0.464,2.932 -0.506,3.419Z" style="fill:#006;"/><path id="Fill-339" d="M23.411,21.869c-0.464,0.146 -0.826,0.209 -1.218,0.209c-0.866,0 -1.339,-0.497 -1.339,-1.414c-0.012,-0.285 0.124,-1.034 0.232,-1.717c0.098,-0.602 0.735,-4.395 0.735,-4.395l1.684,0l-0.196,0.975l1.017,0l-0.229,1.548l-1.021,0c-0.196,1.224 -0.475,2.75 -0.478,2.952c0,0.333 0.177,0.478 0.58,0.478c0.193,0 0.343,-0.02 0.457,-0.061l-0.224,1.425" style="fill:#006;"/><path id="Fill-340" d="M28.576,21.817c-0.579,0.177 -1.137,0.263 -1.729,0.261c-1.886,-0.002 -2.869,-0.986 -2.869,-2.873c0,-2.201 1.251,-3.822 2.949,-3.822c1.389,0 2.276,0.908 2.276,2.33c0,0.473 -0.061,0.934 -0.208,1.584l-3.355,0c-0.113,0.935 0.485,1.324 1.465,1.324c0.603,0 1.147,-0.125 1.751,-0.405l-0.28,1.601Zm-0.947,-3.818c0.01,-0.134 0.178,-1.149 -0.785,-1.149c-0.535,0 -0.92,0.409 -1.075,1.149l1.86,0Z" style="fill:#006;"/><path id="Fill-341" d="M16.895,17.563c0,0.814 0.395,1.376 1.29,1.798c0.686,0.323 0.793,0.419 0.793,0.711c0,0.401 -0.303,0.583 -0.973,0.583c-0.506,0 -0.976,-0.08 -1.519,-0.255c0,0 -0.222,1.42 -0.233,1.488c0.385,0.083 0.729,0.161 1.764,0.19c1.788,0 2.614,-0.68 2.614,-2.152c0,-0.885 -0.345,-1.404 -1.195,-1.795c-0.71,-0.326 -0.792,-0.399 -0.792,-0.7c0,-0.348 0.282,-0.526 0.829,-0.526c0.333,0 0.788,0.036 1.219,0.097l0.241,-1.494c-0.439,-0.07 -1.105,-0.125 -1.492,-0.125c-1.896,0 -2.552,0.99 -2.546,2.18" style="fill:#006;"/><path id="Fill-342" d="M36.819,15.553c0.471,0 0.911,0.123 1.515,0.428l0.277,-1.719c-0.249,-0.098 -1.123,-0.67 -1.863,-0.67c-1.134,0 -2.093,0.563 -2.767,1.491c-0.984,-0.325 -1.389,0.333 -1.884,0.989l-0.441,0.103c0.034,-0.216 0.064,-0.431 0.054,-0.648l-1.557,0c-0.212,1.994 -0.589,4.012 -0.884,6.007l-0.077,0.433l1.696,0c0.283,-1.839 0.437,-3.016 0.532,-3.813l0.638,-0.354c0.096,-0.356 0.394,-0.475 0.993,-0.461c-0.078,0.42 -0.121,0.863 -0.121,1.32c0,2.108 1.139,3.419 2.962,3.419c0.47,0 0.874,-0.061 1.499,-0.231l0.297,-1.805c-0.562,0.276 -1.022,0.406 -1.439,0.406c-0.986,0 -1.582,-0.727 -1.582,-1.929c0,-1.744 0.886,-2.966 2.152,-2.966" style="fill:#006;"/><path id="Fill-343" d="M51.169,14.048l-0.377,2.288c-0.463,-0.61 -0.96,-1.051 -1.618,-1.051c-0.855,0 -1.633,0.648 -2.143,1.603c-0.71,-0.147 -1.443,-0.398 -1.443,-0.398l-0.001,0.006c0.057,-0.533 0.081,-0.858 0.075,-0.969l-1.557,0c-0.211,1.994 -0.589,4.012 -0.883,6.007l-0.078,0.433l1.696,0c0.229,-1.486 0.404,-2.722 0.533,-3.7c0.58,-0.524 0.87,-0.98 1.454,-0.95c-0.259,0.627 -0.41,1.349 -0.41,2.089c0,1.61 0.813,2.672 2.046,2.672c0.621,0 1.098,-0.214 1.563,-0.71l-0.08,0.599l1.604,0l1.291,-7.919l-1.672,0Zm-2.12,6.431c-0.577,0 -0.869,-0.427 -0.869,-1.269c0,-1.266 0.546,-2.163 1.315,-2.163c0.582,0 0.898,0.443 0.898,1.261c0,1.277 -0.555,2.171 -1.344,2.171Z" style="fill:#006;"/><path id="Fill-344" d="M10.959,21.497l-1.694,0l0.971,-6.087l-2.168,6.087l-1.155,0l-0.143,-6.052l-1.021,6.052l-1.586,0l1.325,-7.918l2.438,0l0.068,4.902l1.644,-4.902l2.633,0l-1.312,7.918" style="fill:#fff;"/><path id="Fill-345" d="M15.133,18.629c-0.177,-0.021 -0.256,-0.027 -0.378,-0.027c-0.961,0 -1.447,0.329 -1.447,0.98c0,0.4 0.238,0.657 0.608,0.657c0.69,0 1.188,-0.658 1.217,-1.61Zm1.233,2.868l-1.404,0l0.032,-0.667c-0.428,0.527 -1,0.779 -1.777,0.779c-0.918,0 -1.548,-0.718 -1.548,-1.76c0,-1.568 1.096,-2.482 2.976,-2.482c0.192,0 0.438,0.018 0.691,0.05c0.052,-0.213 0.066,-0.303 0.066,-0.418c0,-0.427 -0.295,-0.585 -1.087,-0.585c-0.829,-0.01 -1.513,0.196 -1.794,0.288c0.018,-0.106 0.235,-1.448 0.235,-1.448c0.844,-0.247 1.401,-0.341 2.028,-0.341c1.456,0 2.226,0.654 2.225,1.889c0.003,0.331 -0.052,0.74 -0.137,1.276c-0.147,0.932 -0.463,2.933 -0.506,3.419Z" style="fill:#fff;"/><path id="Fill-346" d="M39.099,13.792l-0.278,1.719c-0.605,-0.305 -1.043,-0.428 -1.514,-0.428c-1.265,0 -2.153,1.223 -2.153,2.968c0,1.201 0.597,1.927 1.582,1.927c0.418,0 0.879,-0.129 1.44,-0.406l-0.298,1.805c-0.624,0.17 -1.028,0.232 -1.498,0.232c-1.825,0 -2.961,-1.312 -2.961,-3.419c0,-2.831 1.571,-4.809 3.817,-4.809c0.74,0 1.614,0.313 1.863,0.411" style="fill:#fff;"/><path id="Fill-347" d="M41.833,18.629c-0.177,-0.021 -0.255,-0.027 -0.377,-0.027c-0.961,0 -1.447,0.329 -1.447,0.98c0,0.4 0.237,0.657 0.607,0.657c0.69,0 1.189,-0.658 1.217,-1.61Zm1.234,2.868l-1.405,0l0.032,-0.667c-0.428,0.527 -1,0.779 -1.775,0.779c-0.92,0 -1.549,-0.718 -1.549,-1.76c0,-1.568 1.095,-2.482 2.975,-2.482c0.193,0 0.438,0.018 0.691,0.05c0.052,-0.213 0.066,-0.303 0.066,-0.418c0,-0.427 -0.294,-0.585 -1.087,-0.585c-0.828,-0.01 -1.512,0.196 -1.794,0.288c0.018,-0.106 0.236,-1.448 0.236,-1.448c0.844,-0.247 1.401,-0.341 2.028,-0.341c1.455,0 2.226,0.654 2.225,1.889c0.003,0.331 -0.052,0.74 -0.137,1.276c-0.147,0.932 -0.463,2.933 -0.506,3.419Z" style="fill:#fff;"/><path id="Fill-348" d="M23.898,21.399c-0.463,0.147 -0.825,0.21 -1.217,0.21c-0.867,0 -1.34,-0.498 -1.34,-1.414c-0.012,-0.286 0.125,-1.034 0.233,-1.717c0.098,-0.602 0.735,-4.395 0.735,-4.395l1.685,0l-0.197,0.975l0.865,0l-0.231,1.547l-0.868,0c-0.195,1.226 -0.474,2.75 -0.478,2.953c0,0.333 0.178,0.477 0.581,0.477c0.193,0 0.342,-0.019 0.457,-0.061l-0.225,1.425" style="fill:#fff;"/><path id="Fill-349" d="M29.064,21.348c-0.579,0.178 -1.138,0.261 -1.729,0.261c-1.886,-0.001 -2.869,-0.987 -2.869,-2.873c0,-2.202 1.251,-3.823 2.948,-3.823c1.39,0 2.277,0.908 2.277,2.332c0,0.472 -0.062,0.933 -0.207,1.583l-3.356,0c-0.113,0.935 0.485,1.324 1.465,1.324c0.602,0 1.146,-0.125 1.752,-0.406l-0.281,1.602Zm-0.947,-3.819c0.009,-0.134 0.179,-1.149 -0.784,-1.149c-0.536,0 -0.92,0.41 -1.076,1.149l1.86,0Z" style="fill:#fff;"/><path id="Fill-350" d="M17.382,17.093c0,0.816 0.396,1.376 1.291,1.799c0.687,0.323 0.793,0.418 0.793,0.711c0,0.401 -0.303,0.582 -0.974,0.582c-0.505,0 -0.976,-0.078 -1.519,-0.253c0,0 -0.222,1.419 -0.232,1.486c0.385,0.084 0.729,0.161 1.763,0.191c1.789,0 2.615,-0.681 2.615,-2.152c0,-0.886 -0.346,-1.405 -1.195,-1.795c-0.71,-0.326 -0.792,-0.399 -0.792,-0.7c0,-0.348 0.282,-0.527 0.83,-0.527c0.332,0 0.787,0.037 1.217,0.098l0.242,-1.494c-0.439,-0.069 -1.104,-0.126 -1.492,-0.126c-1.896,0 -2.552,0.991 -2.547,2.18" style="fill:#fff;"/><path id="Fill-351" d="M52.037,21.497l-1.603,0l0.08,-0.599c-0.466,0.497 -0.942,0.711 -1.563,0.711c-1.232,0 -2.047,-1.061 -2.047,-2.673c0,-2.142 1.264,-3.947 2.758,-3.947c0.657,0 1.155,0.268 1.619,0.878l0.376,-2.288l1.671,0l-1.291,7.918Zm-2.5,-1.488c0.79,0 1.344,-0.894 1.344,-2.17c0,-0.818 -0.316,-1.263 -0.898,-1.263c-0.769,0 -1.315,0.898 -1.315,2.164c0,0.843 0.292,1.269 0.869,1.269Z" style="fill:#fff;"/><path id="Fill-352" d="M44.593,15.058c-0.212,1.993 -0.589,4.011 -0.883,6.006l-0.078,0.433l1.695,0c0.607,-3.938 0.753,-4.706 1.704,-4.611c0.151,-0.806 0.433,-1.511 0.643,-1.867c-0.71,-0.148 -1.106,0.253 -1.626,1.015c0.042,-0.33 0.117,-0.65 0.103,-0.976l-1.558,0" style="fill:#fff;"/><path id="Fill-353" d="M30.642,15.058c-0.213,1.993 -0.591,4.011 -0.885,6.006l-0.077,0.433l1.696,0c0.606,-3.938 0.752,-4.706 1.701,-4.611c0.153,-0.806 0.435,-1.511 0.645,-1.867c-0.71,-0.148 -1.107,0.253 -1.625,1.015c0.041,-0.33 0.116,-0.65 0.101,-0.976l-1.556,0" style="fill:#fff;"/></g></svg>