<svg height="18" viewBox="0 0 24 18" width="24" xmlns="http://www.w3.org/2000/svg"><path d="m23.961037 15.0077037c0 .525284-.147753 1.0122469-.3844444 1.4406914l-7.5654815-8.4646914 7.4834568-6.54735802c.2911111.46197531.4664691 1.00464197.4664691 1.59106173zm-11.9804938-5.48706172 10.4129877-9.11111112c-.4273087-.23392592-.9084939-.37738271-1.4275556-.37738271h-17.97086419c-.5197037 0-1.00103704.14345679-1.42661728.37738271zm2.9030617-.55120988-2.4103209 2.110321c-.1409877.1228148-.3165433.1841481-.4927408.1841481-.1762963 0-.3518518-.0613333-.4928395-.1841481l-2.41086419-2.11041977-7.66118519 8.57288887c.45920988.2880988.99738272.4606914 1.57940741.4606914h17.97091357c.5819259 0 1.1203457-.1725926 1.5794074-.4606914zm-14.417037-7.5331358c-.29106173.4619753-.4665679 1.00464197-.4665679 1.59111111v11.98034569c0 .5252839.14706173 1.0122469.38464198 1.4406913l7.56459259-8.4661728z" fill-rule="evenodd" transform=""/></svg>