<svg height="24" viewBox="0 0 24 24" width="24" xmlns="http://www.w3.org/2000/svg"><g fill-rule="evenodd" transform=""><path d="m17.7587532 13.7907273c-.0467532-.0224416-1.7964155-.884026-2.1073246-.9959221-.1269351-.0455844-.2629091-.0900779-.4075325-.0900779-.2362597 0-.4347273.1177402-.5893247.349013-.1747792.2597922-.7038701.8782597-.8673506 1.0630129-.0213507.0243897-.0504935.0535325-.0679481.0535325-.0156623 0-.2864415-.1115065-.3684156-.1471169-1.876909-.8152987-3.3015584-2.7758961-3.49690905-3.1065194-.0278961-.0475325-.02906493-.0691169-.0292987-.0691169.00685714-.0251689.06997403-.0884416.10254546-.1210909.09529869-.0942858.19854549-.2185715.29844159-.3388052.0472987-.0569611.0946753-.114.1411948-.1677663.144935-.1686233.2094545-.29953244.2842597-.4511688l.0391948-.07877922c.1826494-.36288312.0266494-.66911689-.0237662-.768-.0413766-.08275325-.78015586-1.86576624-.85870132-2.05309091-.18888312-.45202598-.43846753-.66249351-.7852987-.66249351-.03218182 0 0 0-.13496104.00568831-.16433766.00693507-1.05927273.12475325-1.45496104.37418182-.41961039.26454546-1.12948052 1.10781818-1.12948052 2.59083117 0 1.33472724.84701299 2.59496104 1.21067533 3.07425974.00903896.0120779.02563636.0366234.04971428.0718442 1.3927013 2.033922 3.12888311 3.5412467 4.88890911 4.2443376 1.6944156.6768312 2.4967792.755065 2.952935.755065h.000078c.1916883 0 .3451169-.015039.4804675-.0283637l.0858701-.0081818c.5853507-.0518961 1.8716883-.7184416 2.1642857-1.5315584.2304936-.6404416.2912728-1.3401819.1379221-1.5941299-.1050389-.1726753-.2860519-.2595585-.5152208-.3695844z"/><path d="m12.213039 0c-6.49994809 0-11.78805199 5.24836364-11.78805199 11.6994545 0 2.0865195.55838961 4.1289351 1.61618182 5.9164676l-2.02464935 5.9723376c-.03771429.1113507-.00966234.2344676.0727013.3183117.05945455.0607013.1401039.0934286.22246753.0934286.03155844 0 .06335065-.0047532.09436364-.0146494l6.22753247-1.978909c1.70415584.9105194 3.63023378 1.3911428 5.57953248 1.3911428 6.4993247.0000779 11.7868831-5.2477402 11.7868831-11.6981299 0-6.45109086-5.2875584-11.6994545-11.786961-11.6994545zm0 20.9605714c-1.8342078 0-3.61075329-.5296363-5.13787017-1.5317143-.05135065-.0337402-.11096104-.0510389-.17096104-.0510389-.03171428 0-.06350649.0048312-.09444156.0146493l-3.11961039.9916364 1.00706494-2.9710909c.03257143-.0961559.01628571-.2022078-.04371429-.2841818-1.16290909-1.588987-1.77763636-3.4663637-1.77763636-5.4293767 0-5.10724671 4.18862338-9.26236359 9.33709087-9.26236359 5.1478442 0 9.336 4.15511688 9.336 9.26236359.000078 5.1066234-4.188 9.2611169-9.335922 9.2611169z"/></g></svg>