<svg clip-rule="evenodd" fill-rule="evenodd" stroke-linejoin="round" stroke-miterlimit="1.41421" viewBox="0 0 24 20" xmlns="http://www.w3.org/2000/svg"><path d="m23.998 2.323c-.942.405-1.885.658-2.826.76 1.063-.638 1.783-1.539 2.157-2.704-.972.577-2.01.972-3.114 1.185-.973-1.033-2.168-1.55-3.586-1.55-1.357 0-2.514.478-3.472 1.436-.957.957-1.435 2.114-1.435 3.471 0 .365.04.739.121 1.124-2.005-.101-3.887-.605-5.644-1.511-1.758-.907-3.249-2.115-4.475-3.624-.445.76-.668 1.585-.668 2.476 0 .841.197 1.621.592 2.34s.927 1.302 1.596 1.747c-.79-.03-1.53-.238-2.218-.623v.061c0 1.185.372 2.226 1.116 3.122.745.897 1.684 1.461 2.819 1.694-.426.112-.856.167-1.292.167-.284 0-.593-.025-.927-.075.314.982.892 1.79 1.732 2.423.841.633 1.793.959 2.857.98-1.783 1.398-3.814 2.096-6.093 2.096-.435 0-.83-.019-1.185-.06 2.279 1.468 4.791 2.203 7.536 2.203 1.742 0 3.378-.276 4.907-.828 1.53-.552 2.836-1.292 3.92-2.219 1.084-.926 2.018-1.992 2.803-3.198.785-1.205 1.37-2.463 1.755-3.775s.577-2.626.577-3.943c0-.283-.005-.496-.015-.638.963-.698 1.783-1.544 2.462-2.537z" fill="#767676"/></svg>