<svg clip-rule="evenodd" fill-rule="evenodd" viewBox="0 0 26 25" xmlns="http://www.w3.org/2000/svg"><path d="m12.972 2.316c3.217.001 5.896 2.679 5.9 5.904.001.755.024 1.45.067 2.091.026.395.355.688.732.688.056 0 .112-.006.169-.02l1.008-.236c.043-.01.086-.015.128-.015.256 0 .492.175.549.434.081.366-.124.736-.478.86l-1.53.618c-.386.156-.593.576-.485.978 1.227 4.537 4.655 4.065 4.655 4.656 0 .742-2.584.847-2.817 1.08-.233.234-.01 1.367-.532 1.586-.098.041-.238.056-.408.056-.393 0-.948-.077-1.534-.077-.508 0-1.038.058-1.504.273-1.238.572-2.43 1.639-3.909 1.639-1.478 0-2.671-1.067-3.908-1.639-.467-.215-.997-.273-1.505-.273-.586 0-1.141.077-1.534.077-.17 0-.31-.015-.408-.056-.522-.219-.298-1.352-.532-1.586-.233-.233-2.817-.338-2.817-1.08 0-.591 3.428-.12 4.655-4.656.109-.402-.099-.822-.485-.978l-1.529-.618c-.355-.124-.56-.494-.479-.86.058-.259.293-.434.549-.434.043 0 .086.005.129.015l1.007.236c.057.014.114.02.169.02.377 0 .706-.293.732-.688.043-.641.066-1.336.067-2.091.004-3.225 2.662-5.903 5.878-5.904zm.001-1.279h-.001c-.96 0-1.895.193-2.78.573-.849.365-1.613.886-2.271 1.547-.657.66-1.174 1.427-1.536 2.279-.377.886-.569 1.822-.57 2.782-.001.472-.011.929-.03 1.368l-.375-.088c-.137-.033-.279-.049-.42-.049-.408 0-.81.138-1.133.388-.337.262-.573.634-.665 1.048-.219.986.326 1.982 1.269 2.332l1.123.453c-.743 2.282-2.114 2.719-3.037 3.013-.245.079-.456.146-.658.246-.802.398-.889 1.073-.889 1.345 0 .52.246.995.693 1.337.223.17.499.31.844.429.469.162 1.014.264 1.457.347.021.164.052.34.105.517.22.738.683 1.068 1.033 1.215.332.14.675.156.904.156.224 0 .461-.018.712-.036.269-.02.547-.041.822-.041.425 0 .742.051.968.155.311.144.64.337.988.542.97.57 2.07 1.215 3.457 1.215s2.487-.645 3.457-1.215c.349-.205.678-.398.988-.542.226-.104.543-.155.968-.155.275 0 .553.021.822.041.251.018.488.036.712.036.229 0 .572-.016.904-.156.35-.147.813-.477 1.033-1.215.053-.177.084-.353.105-.517.443-.083.988-.185 1.458-.347.344-.119.62-.259.843-.429.447-.342.693-.817.693-1.337 0-.272-.086-.947-.889-1.345-.202-.1-.413-.167-.658-.246-.923-.294-2.294-.731-3.037-3.013l1.123-.453c.943-.35 1.488-1.346 1.269-2.332-.092-.414-.328-.786-.665-1.048-.323-.25-.725-.388-1.133-.388-.141 0-.283.016-.42.049l-.375.087c-.019-.438-.029-.895-.029-1.367-.002-.961-.195-1.898-.575-2.785-.365-.851-.885-1.618-1.545-2.278-.66-.661-1.427-1.181-2.277-1.545-.886-.38-1.822-.573-2.782-.573z" fill="#767676" stroke="#767676" stroke-width=".5"/></svg>