<svg clip-rule="evenodd" fill-rule="evenodd" stroke-linejoin="round" stroke-miterlimit="1.41421" viewBox="0 0 24 17" xmlns="http://www.w3.org/2000/svg"><path d="m23.065 1.521c-.867-1.03-2.466-1.45-5.521-1.45h-11.088c-3.125 0-4.751.447-5.615 1.544-.841 1.069-.841 2.644-.841 4.824v4.155c0 4.223.998 6.367 6.456 6.367h11.088c2.649 0 4.117-.37 5.067-1.279.973-.932 1.389-2.454 1.389-5.088v-4.155c0-2.299-.065-3.884-.935-4.918zm-7.657 7.569-5.035 2.631c-.113.059-.236.088-.359.088-.139 0-.278-.037-.401-.112-.231-.14-.373-.391-.373-.662v-5.246c0-.27.141-.521.372-.662.232-.14.519-.15.759-.025l5.035 2.615c.256.133.417.397.418.686 0 .288-.16.553-.416.687z" fill="#767676"/></svg>