<svg clip-rule="evenodd" fill-rule="evenodd" stroke-linejoin="round" stroke-miterlimit="1.41421" viewBox="0 0 24 24" xmlns="http://www.w3.org/2000/svg"><g fill="#767676"><path d="m16.821 0h-9.684c-3.935 0-7.137 3.202-7.137 7.137v9.684c0 3.935 3.202 7.137 7.137 7.137h9.684c3.935 0 7.137-3.202 7.137-7.137v-9.684c0-3.935-3.202-7.137-7.137-7.137zm4.727 16.821c0 2.61-2.117 4.727-4.727 4.727h-9.684c-2.61 0-4.727-2.117-4.727-4.727v-9.684c0-2.61 2.117-4.727 4.727-4.727h9.684c2.61 0 4.727 2.117 4.727 4.727z"/><path d="m11.979 5.783c-3.417 0-6.196 2.779-6.196 6.196s2.779 6.196 6.196 6.196 6.196-2.779 6.196-6.196-2.779-6.196-6.196-6.196zm0 9.982c-2.091 0-3.786-1.695-3.786-3.786s1.695-3.786 3.786-3.786 3.786 1.695 3.786 3.786-1.695 3.786-3.786 3.786z"/><circle cx="18.187" cy="5.829" r="1.485"/></g></svg>