<svg height="23" viewBox="0 0 24 23" width="24" xmlns="http://www.w3.org/2000/svg"><path d="m21.6 0h-19.2c-1.3008 0-2.4 1.0992-2.4 2.4v13.2c0 1.3008 1.0992 2.4 2.4 2.4h3.2v4c0 .1652.1016.3136.2556.3732.0472.0184.096.0268.1444.0268.1104 0 .2188-.0456.296-.1308l3.8808-4.2692h11.4232c1.3008 0 2.4-1.0992 2.4-2.4v-13.2c0-1.3008-1.0992-2.4-2.4-2.4zm-1.2452 4.5852-4.8 9.2c-.0536.1028-.1496.1772-.2628.2044-.0304.0068-.0612.0104-.092.0104-.0832 0-.1656-.026-.234-.0756l-6.9104-4.9908-3.7596 4.1356c-.1344.1472-.3576.1732-.522.0608-.1648-.1128-.2212-.33-.132-.5088l4-8c.0524-.1052.1484-.1816.2624-.2092.1144-.028.2344-.0044.3296.064l6.9016 4.984 4.5608-5.32c.1324-.1544.3588-.1856.528-.0712.168.1136.2244.336.1304.5164z" fill-rule="evenodd" transform=""/></svg>