<svg height="20" viewBox="0 0 23 20" width="23" xmlns="http://www.w3.org/2000/svg"><path d="m22.0315909 2.80863636-2.9479545-2.59068181c-.0904546-.08-.2106819-.12068182-.3293182-.11227273-.1202273.00795454-.2325.06318182-.3120455.15386363l-10.6922727 12.16954545-3.80181818-5.03204545c-.0725-.09590909-.18045455-.15931818-.29977273-.17568181-.11909091-.01772728-.24068182.01454545-.33659091.0875l-3.13136363 2.36545454c-.20022728.15136364-.24.43636362-.08863637.63659092l7.03954546 9.3172727c.08227272.1088637.20954545.1752273.34590909.1802273h.01659091c.13045454 0 .255-.0559091.34159091-.1545455l14.23727275-16.2038636c.1659091-.18840909.1475-.47590909-.0411364-.64136364z" fill-rule="evenodd" transform=""/></svg>