<?xml version="1.0" encoding="UTF-8" standalone="no"?><!DOCTYPE svg PUBLIC "-//W3C//DTD SVG 1.1//EN" "http://www.w3.org/Graphics/SVG/1.1/DTD/svg11.dtd"><svg width="100%" height="100%" viewBox="0 0 24 24" version="1.1" xmlns="http://www.w3.org/2000/svg" xmlns:xlink="http://www.w3.org/1999/xlink" xml:space="preserve" xmlns:serif="http://www.serif.com/" style="fill-rule:evenodd;clip-rule:evenodd;stroke-linejoin:round;stroke-miterlimit:1.41421;"><g><path d="M11.6,5.6c0.221,0 0.4,-0.179 0.4,-0.4l0,-4.4l2.634,0l-0.517,0.517c-0.156,0.157 -0.156,0.409 0,0.566l0.517,0.517l-1.434,0c-0.221,0 -0.4,0.179 -0.4,0.4c0,0.221 0.179,0.4 0.4,0.4l2.4,0c0.162,0 0.308,-0.098 0.37,-0.247c0.062,-0.149 0.027,-0.321 -0.087,-0.436l-0.917,-0.917l0.917,-0.917c0.114,-0.115 0.149,-0.287 0.087,-0.436c-0.062,-0.149 -0.208,-0.247 -0.37,-0.247l-4,0c-0.221,0 -0.4,0.179 -0.4,0.4l0,4.8c0,0.221 0.179,0.4 0.4,0.4Z" style="fill:#fff;"/><path d="M23.996,23.543c-0.006,-0.042 -0.628,-4.299 -2.377,-8.497c-1.451,-3.482 -3.27,-5.949 -5.372,-7.335c-0.028,-0.026 -0.058,-0.048 -0.092,-0.065c-1.287,-0.825 -2.678,-1.246 -4.155,-1.246c-1.477,0 -2.868,0.421 -4.154,1.246c-0.035,0.017 -0.066,0.039 -0.094,0.066c-2.102,1.386 -3.921,3.853 -5.371,7.334c-1.749,4.198 -2.371,8.455 -2.377,8.497c-0.016,0.115 0.018,0.231 0.094,0.319c0.076,0.088 0.186,0.138 0.302,0.138l4,0c0.221,0 0.4,-0.179 0.4,-0.4c0,-0.221 -0.179,-0.4 -0.4,-0.4l-3.528,0c0.062,-0.358 0.168,-0.914 0.321,-1.6l4.504,0c-0.043,0.483 -0.07,0.969 -0.081,1.458c-0.01,0.184 -0.016,0.365 -0.016,0.542c0,0.221 0.179,0.4 0.4,0.4c0.221,0 0.4,-0.179 0.4,-0.4c0,-3.663 2.234,-9.2 5.6,-9.2c3.366,0 5.6,5.537 5.6,9.2c0,0.221 0.179,0.4 0.4,0.4c0.221,0 0.4,-0.179 0.4,-0.4c0,-0.177 -0.006,-0.358 -0.016,-0.542c-0.011,-0.489 -0.038,-0.975 -0.081,-1.458l4.504,0c0.153,0.686 0.259,1.242 0.321,1.6l-3.528,0c-0.221,0 -0.4,0.179 -0.4,0.4c0,0.221 0.179,0.4 0.4,0.4l4,0c0.116,0 0.226,-0.05 0.302,-0.138c0.076,-0.088 0.11,-0.204 0.094,-0.319Zm-11.996,-16.343c1.066,0 2.036,0.248 2.922,0.674c-1.046,0.328 -2.023,0.796 -2.922,1.397c-0.899,-0.601 -1.876,-1.069 -2.922,-1.397c0.886,-0.426 1.856,-0.674 2.922,-0.674Zm-6.225,13.6l-4.396,0c0.883,-3.638 2.882,-9.762 6.72,-12.367c1.2,0.285 2.267,0.742 3.212,1.334c-1.331,1.041 -2.467,2.397 -3.371,4.04c-1.11,2.018 -1.849,4.435 -2.165,6.993Zm6.225,-7.2c-1.86,0 -3.398,1.343 -4.501,3.19c0.879,-2.574 2.329,-4.943 4.501,-6.556c2.172,1.613 3.622,3.982 4.501,6.556c-1.103,-1.847 -2.641,-3.19 -4.501,-3.19Zm6.225,7.2c-0.316,-2.558 -1.055,-4.975 -2.165,-6.993c-0.904,-1.643 -2.04,-2.999 -3.371,-4.04c0.945,-0.592 2.012,-1.049 3.212,-1.334c3.838,2.605 5.837,8.729 6.72,12.367l-4.396,0Z" style="fill:#fff;"/></g></svg>