<?xml version="1.0" encoding="UTF-8" standalone="no"?><!DOCTYPE svg PUBLIC "-//W3C//DTD SVG 1.1//EN" "http://www.w3.org/Graphics/SVG/1.1/DTD/svg11.dtd"><svg width="100%" height="100%" viewBox="0 0 24 24" version="1.1" xmlns="http://www.w3.org/2000/svg" xmlns:xlink="http://www.w3.org/1999/xlink" xml:space="preserve" xmlns:serif="http://www.serif.com/" style="fill-rule:evenodd;clip-rule:evenodd;stroke-linejoin:round;stroke-miterlimit:1.41421;"><g><path d="M12.557,5.644c-0.846,-0.283 -1.834,0 -2.54,0.564c-0.705,0.564 -1.128,1.411 -1.128,2.399c0,0.423 0.282,0.705 0.705,0.705c0.423,0 0.706,-0.282 0.706,-0.705c0,-0.424 0.141,-0.988 0.564,-1.27c0.423,-0.282 0.847,-0.424 1.411,-0.282c0.705,0.141 1.129,0.705 1.27,1.269c0.141,0.706 0,1.27 -0.565,1.693c-1.128,0.847 -1.693,2.117 -1.693,3.387c0,0.423 0.282,0.705 0.706,0.705c0.423,0 0.705,-0.282 0.564,-0.705c0,-0.847 0.564,-1.693 1.27,-2.258c0.988,-0.846 1.411,-1.975 1.129,-3.104c-0.283,-1.27 -1.27,-2.116 -2.399,-2.398Z" style="fill:#c2c2c2;"/><path d="M11.428,17.072c-0.141,0.141 -0.141,0.423 -0.141,0.564c0,0.141 0,0.283 0.141,0.424c0.141,0.141 0.424,0.282 0.565,0.282c0.141,0 0.423,-0.141 0.423,-0.282c0.141,0 0.282,-0.283 0.282,-0.424c0,-0.282 -0.141,-0.423 -0.282,-0.564c-0.282,-0.282 -0.705,-0.282 -0.988,0Z" style="fill:#c2c2c2;"/><path d="M11.993,0c-6.632,0 -11.993,5.361 -11.993,11.993c0,6.631 5.361,11.992 11.993,11.992c6.631,0 11.992,-5.361 11.992,-11.992c0,-6.632 -5.361,-11.993 -11.992,-11.993Zm0,22.575c-5.785,0 -10.582,-4.798 -10.582,-10.582c0,-5.785 4.797,-10.582 10.582,-10.582c5.784,0 10.582,4.797 10.582,10.582c0,5.784 -4.798,10.582 -10.582,10.582Z" style="fill:#c2c2c2;"/></g></svg>