<?xml version="1.0" encoding="UTF-8" standalone="no"?><!DOCTYPE svg PUBLIC "-//W3C//DTD SVG 1.1//EN" "http://www.w3.org/Graphics/SVG/1.1/DTD/svg11.dtd"><svg width="100%" height="100%" viewBox="0 0 24 24" version="1.1" xmlns="http://www.w3.org/2000/svg" xmlns:xlink="http://www.w3.org/1999/xlink" xml:space="preserve" xmlns:serif="http://www.serif.com/" style="fill-rule:evenodd;clip-rule:evenodd;stroke-linejoin:round;stroke-miterlimit:1.41421;"><g><path d="M21.199,6.277l-0.261,0.261c-0.489,0.489 -0.844,0.63 -1.585,0.63c-1.498,0 -2.585,-1.087 -2.585,-2.584c0,-0.741 0.142,-1.097 0.631,-1.585l0.261,-0.262l-2.738,-2.737l-14.922,14.922l2.737,2.738l0.262,-0.261c0.488,-0.489 0.844,-0.631 1.585,-0.631c1.497,0 2.584,1.087 2.584,2.585c0,0.741 -0.141,1.096 -0.63,1.585l-0.261,0.261l2.737,2.737l14.922,-14.922l-2.737,-2.737Zm-13.888,14.911c0.44,-0.524 0.596,-1.03 0.596,-1.835c0,-1.895 -1.429,-3.323 -3.323,-3.323c-0.806,0 -1.311,0.156 -1.836,0.596l-1.704,-1.704l8.709,-8.709l1.216,1.216l0.522,-0.522l-1.216,-1.216l4.647,-4.647l1.704,1.704c-0.44,0.525 -0.596,1.03 -0.596,1.836c0,1.894 1.428,3.323 3.323,3.323c0.805,0 1.311,-0.156 1.836,-0.596l1.703,1.703l-4.647,4.648l-1.216,-1.216l-0.522,0.522l1.216,1.216l-8.709,8.708l-1.703,-1.704Z" style="fill:#fff;"/><path d="M13.184,9.645l-1.477,-1.477l0.522,-0.522l1.477,1.477l-0.522,0.522Z" style="fill:#fff;"/><path d="M15.769,12.23l-1.477,-1.477l0.522,-0.522l1.477,1.477l-0.522,0.522Z" style="fill:#fff;"/></g></svg>