<?xml version="1.0" encoding="UTF-8" standalone="no"?><!DOCTYPE svg PUBLIC "-//W3C//DTD SVG 1.1//EN" "http://www.w3.org/Graphics/SVG/1.1/DTD/svg11.dtd"><svg width="100%" height="100%" viewBox="0 0 24 22" version="1.1" xmlns="http://www.w3.org/2000/svg" xmlns:xlink="http://www.w3.org/1999/xlink" xml:space="preserve" xmlns:serif="http://www.serif.com/" style="fill-rule:evenodd;clip-rule:evenodd;stroke-linejoin:round;stroke-miterlimit:1.41421;"><path d="M23.994,7.303c0.003,-0.016 0.005,-0.032 0.006,-0.049c0,-0.02 0,-0.038 -0.002,-0.058c-0.001,-0.017 -0.004,-0.033 -0.008,-0.049c-0.004,-0.019 -0.01,-0.038 -0.017,-0.056c-0.004,-0.01 -0.005,-0.02 -0.009,-0.029c-0.003,-0.007 -0.009,-0.012 -0.012,-0.019c-0.004,-0.007 -0.006,-0.014 -0.01,-0.021l-4.001,-6.401c-0.018,-0.029 -0.04,-0.056 -0.064,-0.079c0,0 -0.001,0 -0.001,-0.001c-0.035,-0.032 -0.075,-0.055 -0.119,-0.074c-0.006,-0.002 -0.009,-0.007 -0.015,-0.009c-0.005,-0.002 -0.009,-0.001 -0.014,-0.002c-0.04,-0.014 -0.082,-0.023 -0.125,-0.023l-15.204,0c-0.043,0 -0.084,0.009 -0.124,0.022c-0.004,0.001 -0.009,0.001 -0.013,0.002c-0.006,0.002 -0.009,0.007 -0.015,0.009c-0.042,0.018 -0.081,0.04 -0.115,0.07c-0.002,0.002 -0.005,0.004 -0.007,0.005c-0.024,0.024 -0.046,0.05 -0.065,0.08l-4.001,6.401c-0.004,0.006 -0.005,0.014 -0.009,0.021c-0.004,0.007 -0.009,0.012 -0.012,0.019c-0.005,0.009 -0.006,0.019 -0.01,0.028c-0.007,0.019 -0.013,0.037 -0.017,0.056c-0.004,0.017 -0.007,0.033 -0.008,0.05c-0.003,0.02 -0.003,0.039 -0.003,0.058c0.001,0.017 0.003,0.033 0.006,0.049c0.003,0.019 0.008,0.038 0.014,0.057c0.006,0.016 0.011,0.031 0.018,0.046c0.004,0.007 0.005,0.015 0.009,0.023c0.007,0.011 0.016,0.02 0.023,0.031c0.006,0.008 0.009,0.017 0.016,0.025l11.598,14.398l0.005,0.006c0.001,0.001 0.003,0.002 0.004,0.003c0.033,0.04 0.074,0.07 0.118,0.094c0.012,0.006 0.023,0.012 0.036,0.017c0.048,0.021 0.099,0.035 0.153,0.035c0.046,0 0.092,-0.008 0.137,-0.024c0.007,-0.003 0.011,-0.008 0.018,-0.011c0.021,-0.009 0.037,-0.022 0.055,-0.034c0.03,-0.019 0.059,-0.039 0.082,-0.065c0.006,-0.006 0.014,-0.009 0.02,-0.015l11.602,-14.404c0.007,-0.008 0.01,-0.017 0.016,-0.025c0.008,-0.011 0.017,-0.02 0.023,-0.031c0.004,-0.008 0.005,-0.016 0.009,-0.023c0.007,-0.015 0.013,-0.03 0.018,-0.046c0.006,-0.019 0.011,-0.037 0.014,-0.057Zm-11.153,-6.07l6.185,0l-1.944,5.22l-4.241,-5.22Zm3.52,5.602l-8.721,0l4.36,-5.367l4.361,5.367Zm-9.471,-0.348l-1.92,-5.254l6.189,0l-4.269,5.254Zm9.751,1.148l-4.711,12.645l-4.621,-12.645l9.332,0Zm3.052,-5.9l3.188,5.1l-5.088,0l1.9,-5.1Zm-15.39,0.005l1.862,5.095l-5.046,0l3.184,-5.095Zm2.155,5.895l4.336,11.868l-9.561,-11.868l5.225,0Zm6.501,12.175l4.536,-12.175l5.272,0l-9.808,12.175Z" style="fill:#fff;"/></svg>