<?xml version="1.0" encoding="UTF-8" standalone="no"?><!DOCTYPE svg PUBLIC "-//W3C//DTD SVG 1.1//EN" "http://www.w3.org/Graphics/SVG/1.1/DTD/svg11.dtd"><svg width="100%" height="100%" viewBox="0 0 12 16" version="1.1" xmlns="http://www.w3.org/2000/svg" xmlns:xlink="http://www.w3.org/1999/xlink" xml:space="preserve" xmlns:serif="http://www.serif.com/" style="fill-rule:evenodd;clip-rule:evenodd;stroke-linejoin:round;stroke-miterlimit:1.41421;"><path d="M11.132,6.29l-0.303,0l0,-1.42c0,-2.628 -2.085,-4.822 -4.691,-4.869c-0.071,-0.001 -0.213,-0.001 -0.285,0c-2.605,0.047 -4.69,2.241 -4.69,4.869l0,1.42l-0.304,0c-0.467,0 -0.849,0.483 -0.849,1.079l0,7.124c0,0.595 0.382,1.082 0.849,1.082l10.273,0c0.468,0 0.849,-0.487 0.849,-1.082l0,-7.124c0,-0.596 -0.381,-1.079 -0.849,-1.079Zm-4.174,4.634l0,2.152c0,0.247 -0.206,0.455 -0.453,0.455l-1.019,0c-0.246,0 -0.453,-0.208 -0.453,-0.455l0,-2.152c-0.239,-0.236 -0.378,-0.562 -0.378,-0.922c0,-0.683 0.527,-1.269 1.198,-1.296c0.072,-0.003 0.214,-0.003 0.285,0c0.671,0.027 1.199,0.613 1.199,1.296c0,0.36 -0.14,0.686 -0.379,0.922Zm1.87,-4.634l-2.69,0l-0.285,0l-2.69,0l0,-1.42c0,-1.565 1.272,-2.859 2.833,-2.859c1.561,0 2.832,1.294 2.832,2.859l0,1.42l0,0Z" style="fill:#fff;"/></svg>