<?xml version="1.0" encoding="UTF-8" standalone="no"?><!DOCTYPE svg PUBLIC "-//W3C//DTD SVG 1.1//EN" "http://www.w3.org/Graphics/SVG/1.1/DTD/svg11.dtd"><svg width="100%" height="100%" viewBox="0 0 20 24" version="1.1" xmlns="http://www.w3.org/2000/svg" xmlns:xlink="http://www.w3.org/1999/xlink" xml:space="preserve" xmlns:serif="http://www.serif.com/" style="fill-rule:evenodd;clip-rule:evenodd;stroke-linejoin:round;stroke-miterlimit:1.41421;"><path d="M12.023,24l7.94,0l-9.63,-19.557l2.834,-1.961l-0.406,-0.587l-2.528,1.748l0,-3.643l-0.714,0l0,3.643l-2.528,-1.748l-0.406,0.587l2.837,1.962l-9.417,19.556l11.066,0l0,-0.714l-4.743,0l3.548,-6.748l3.549,6.748l-1.402,0l0,0.714Zm-6.643,-0.714l-4.238,0l0.394,-0.819l3.844,0l0,0.819Zm0.714,-1.089l0,-6.069l3.191,0l-3.191,6.069Zm3.425,-6.784l-4.139,0l0,6.34l-3.5,0l7.639,-15.864l0,9.524l0,0Zm9.297,7.873l-4.585,0l-0.43,-0.819l4.612,0l0.403,0.819Zm-8.583,-7.604l0,-9.825l7.828,15.896l-4.636,0l-3.192,-6.071Z" style="fill:#fff;"/></svg>